<svg width="150" height="378" viewBox="0 0 150 378" fill="none" xmlns="http://www.w3.org/2000/svg">
<mask id="mask0_29_2023" style="mask-type:luminance" maskUnits="userSpaceOnUse" x="-228" y="0" width="378" height="378">
<path d="M150 3.30458e-05L-228 0L-228 378L150 378L150 3.30458e-05Z" fill="white"/>
</mask>
<g mask="url(#mask0_29_2023)">
<path d="M47.9139 148.313L-81.7742 183.593L-81.7874 183.54L47.8877 148.26L47.9139 148.313Z" fill="#A68272"/>
<path d="M17.2014 159.311L-81.7742 183.593L-81.7874 183.54L17.1883 159.259L17.2014 159.311Z" fill="#A68272"/>
<path d="M52.4812 179.931L-81.7744 183.593L-81.7744 183.54L52.4812 179.878L52.4812 179.931Z" fill="#A68272"/>
<path d="M37.8206 183.54L-81.7744 183.54L-81.7744 183.593L37.8206 183.593L37.8206 183.54Z" fill="#A68272"/>
<path d="M4.83764 244.952L4.81139 244.991L-81.7874 183.593L-81.7611 183.553L4.83764 244.952Z" fill="#A68272"/>
<path d="M19.0389 240.371L19.0126 240.411L-81.7874 183.593L-81.7611 183.553L19.0389 240.371Z" fill="#A68272"/>
<path d="M33.2533 238.075L33.227 238.127L-81.7874 183.593L-81.7611 183.54L33.2533 238.075Z" fill="#A68272"/>
<path d="M44.252 238.075L44.2258 238.127L-81.7874 183.593L-81.7611 183.54L44.252 238.075Z" fill="#A68272"/>
<path d="M0.243713 170.756L-81.7744 183.593L-81.7744 183.553L0.243713 170.717L0.243713 170.756Z" fill="#A68272"/>
<path d="M8.49933 185.378L8.49933 185.43L-81.7744 183.593L-81.7744 183.54L8.49933 185.378Z" fill="#A68272"/>
<path d="M-82.0236 184.642L-82.0344 184.693L22.9296 206.755L22.9404 206.704L-82.0236 184.642Z" fill="#A68272"/>
<path d="M36.4558 226.616L36.4295 226.669L-81.7874 183.593L-81.7611 183.54L36.4558 226.616Z" fill="#A68272"/>
<path d="M80.4505 253.194L80.4243 253.234L-4.12695 187.714L-4.08758 187.674L80.4505 253.194Z" fill="#A68272"/>
<path d="M62.5743 214.712L62.5612 214.751L-4.11377 187.714L-4.10063 187.674L62.5743 214.712Z" fill="#A68272"/>
<path d="M71.7225 191.336L71.7225 191.389L-4.11377 187.714L-4.11377 187.674L71.7225 191.336Z" fill="#A68272"/>
<path d="M90.0581 189.499L90.0581 189.551L-4.11377 187.714L-4.11377 187.674L90.0581 189.499Z" fill="#A68272"/>
<path d="M107.934 196.376L107.921 196.429L-4.11377 187.727L-4.10063 187.674L107.934 196.376Z" fill="#A68272"/>
<path d="M114.352 210.578L114.339 210.63L-4.11377 187.727L-4.10063 187.674L114.352 210.578Z" fill="#A68272"/>
<path d="M124.879 193.161L124.879 193.226L-4.11377 187.727L-4.11377 187.661L124.879 193.161Z" fill="#A68272"/>
<path d="M112.056 167.567L-4.10063 187.727L-4.11377 187.674L112.043 167.501L112.056 167.567Z" fill="#A68272"/>
<path d="M93.2737 152.893L-4.10063 187.714L-4.11377 187.675L93.2606 152.841L93.2737 152.893Z" fill="#A68272"/>
<path d="M71.7356 146.475L-4.10064 187.714L-4.11377 187.675L71.7225 146.436L71.7356 146.475Z" fill="#A68272"/>
<path d="M47.9137 148.299L-4.1007 187.714L-4.12696 187.674L47.8874 148.273L47.9137 148.299Z" fill="#A68272"/>
<path d="M17.2143 159.298L-4.08758 187.701L-4.12696 187.688L17.188 159.272L17.2143 159.298Z" fill="#A68272"/>
<path d="M122.595 184.052L-4.11377 187.727L-4.11377 187.661L122.595 184L122.595 184.052Z" fill="#A68272"/>
<path d="M104.259 174.431L-4.10063 187.727L-4.11377 187.675L104.259 174.379L104.259 174.431Z" fill="#A68272"/>
<path d="M79.9781 174.431L-4.10063 187.714L-4.11377 187.675L79.965 174.379L79.9781 174.431Z" fill="#A68272"/>
<path d="M52.4812 179.931L-4.10063 187.714L-4.11377 187.675L52.4812 179.891L52.4812 179.931Z" fill="#A68272"/>
<path d="M37.8279 183.539L-4.10083 187.665L-4.09697 187.705L37.8318 183.579L37.8279 183.539Z" fill="#A68272"/>
<path d="M96.4762 183.133L-4.11377 187.714L-4.11377 187.674L96.4631 183.094L96.4762 183.133Z" fill="#A68272"/>
<path d="M4.85054 244.965L4.81116 244.978L-4.12695 187.701L-4.08758 187.688L4.85054 244.965Z" fill="#A68272"/>
<path d="M19.0518 240.384L19.0124 240.398L-4.12695 187.701L-4.08758 187.688L19.0518 240.384Z" fill="#A68272"/>
<path d="M33.253 238.088L33.2268 238.114L-4.12695 187.701L-4.08758 187.688L33.253 238.088Z" fill="#A68272"/>
<path d="M-4.09463 187.686L-4.12305 187.713L44.2149 238.12L44.2433 238.092L-4.09463 187.686Z" fill="#A68272"/>
<path d="M56.6155 238.088L56.5893 238.114L-4.12695 187.714L-4.08758 187.674L56.6155 238.088Z" fill="#A68272"/>
<path d="M72.1949 237.156L72.1687 237.208L-4.12695 187.714L-4.1007 187.674L72.1949 237.156Z" fill="#A68272"/>
<path d="M79.9912 236.25L79.9649 236.289L-4.12695 187.714L-4.1007 187.674L79.9912 236.25Z" fill="#A68272"/>
<path d="M85.9368 233.953L85.9237 233.993L-4.11377 187.714L-4.10063 187.674L85.9368 233.953Z" fill="#A68272"/>
<path d="M91.8956 230.291L91.8825 230.331L-4.11377 187.714L-4.10063 187.674L91.8956 230.291Z" fill="#A68272"/>
<path d="M96.03 226.616L96.0037 226.669L-4.11377 187.714L-4.10063 187.674L96.03 226.616Z" fill="#A68272"/>
<path d="M100.597 219.752L100.584 219.791L-4.11377 187.714L-4.10063 187.674L100.597 219.752Z" fill="#A68272"/>
<path d="M107.934 202.335L107.921 202.388L-4.11377 187.727L-4.10063 187.674L107.934 202.335Z" fill="#A68272"/>
<path d="M107.921 179.931L-4.10063 187.727L-4.11377 187.675L107.921 179.878L107.921 179.931Z" fill="#A68272"/>
<path d="M105.178 159.311L-4.10063 187.714L-4.11377 187.675L105.165 159.259L105.178 159.311Z" fill="#A68272"/>
<path d="M99.2262 146.879L-4.10547 187.666L-4.08619 187.715L99.2454 146.928L99.2262 146.879Z" fill="#A68272"/>
<path d="M94.1925 140.976L-4.10064 187.714L-4.11377 187.675L94.1662 140.936L94.1925 140.976Z" fill="#A68272"/>
<path d="M85.4905 135.476L-4.1007 187.714L-4.12696 187.674L85.4643 135.437L85.4905 135.476Z" fill="#A68272"/>
<path d="M75.4106 131.815L-4.08758 187.714L-4.12696 187.675L75.3843 131.775L75.4106 131.815Z" fill="#A68272"/>
<path d="M66.7087 128.14L-4.08758 187.714L-4.12696 187.675L66.6693 128.113L66.7087 128.14Z" fill="#A68272"/>
<path d="M59.3718 127.234L-4.08759 187.714L-4.12696 187.675L59.3324 127.195L59.3718 127.234Z" fill="#A68272"/>
<path d="M51.1293 123.559L-4.08759 187.714L-4.12696 187.675L51.0899 123.533L51.1293 123.559Z" fill="#A68272"/>
<path d="M0.256792 170.743L-4.08758 187.701L-4.12695 187.688L0.230536 170.743L0.256792 170.743Z" fill="#A68272"/>
<path d="M8.49936 185.417L-4.10063 187.714L-4.11377 187.675L8.48624 185.391L8.49936 185.417Z" fill="#A68272"/>
<path d="M22.7137 207.834L22.6875 207.874L-4.11377 187.714L-4.10063 187.674L22.7137 207.834Z" fill="#A68272"/>
<path d="M-3.73051 187.34L-3.7583 187.368L36.0699 227.058L36.0977 227.03L-3.73051 187.34Z" fill="#A68272"/>
<path d="M46.5355 238.993L46.5093 239.033L-4.12695 187.714L-4.08758 187.674L46.5355 238.993Z" fill="#A68272"/>
<path d="M54.7912 245.411L54.7649 245.451L-4.12695 187.714L-4.08758 187.674L54.7912 245.411Z" fill="#A68272"/>
<path d="M60.7499 249.073L60.7105 249.113L-4.12695 187.714L-4.08758 187.674L60.7499 249.073Z" fill="#A68272"/>
<path d="M67.168 250.911L67.1286 250.95L-4.12695 187.714L-4.08758 187.674L67.168 250.911Z" fill="#A68272"/>
<path d="M90.9899 252.735L90.9637 252.788L-4.12695 187.714L-4.08758 187.674L90.9899 252.735Z" fill="#A68272"/>
<path d="M96.9487 248.154L96.9224 248.207L-4.12695 187.714L-4.1007 187.674L96.9487 248.154Z" fill="#A68272"/>
<path d="M105.651 238.534L105.624 238.586L-4.11377 187.714L-4.10063 187.674L105.651 238.534Z" fill="#A68272"/>
<path d="M114.352 223.414L114.339 223.466L-4.11377 187.727L-4.10063 187.674L114.352 223.414Z" fill="#A68272"/>
<path d="M124.419 197.295L124.419 197.348L-4.11377 187.727L-4.10063 187.661L124.419 197.295Z" fill="#A68272"/>
<path d="M125.797 170.31L-4.10063 187.727L-4.11377 187.661L125.797 170.258L125.797 170.31Z" fill="#A68272"/>
<path d="M124.433 150.15L-4.10064 187.727L-4.11377 187.661L124.419 150.098L124.433 150.15Z" fill="#A68272"/>
<path d="M119.392 135.476L-4.10064 187.727L-4.11377 187.674L119.366 135.437L119.392 135.476Z" fill="#A68272"/>
<path d="M112.032 126.754L-4.1272 187.688L-4.10281 187.734L112.057 126.801L112.032 126.754Z" fill="#A68272"/>
<path d="M102.907 120.356L-4.08759 187.714L-4.12696 187.674L102.868 120.317L102.907 120.356Z" fill="#A68272"/>
<path d="M93.2737 117.613L-4.08759 187.714L-4.12696 187.675L93.2474 117.561L93.2737 117.613Z" fill="#A68272"/>
<path d="M82.7474 118.978L-4.08759 187.714L-4.12696 187.675L82.7081 118.939L82.7474 118.978Z" fill="#A68272"/>
<path d="M72.6543 122.64L-4.08759 187.714L-4.12696 187.674L72.6281 122.614L72.6543 122.64Z" fill="#A68272"/>
<path d="M63.493 128.599L-4.08758 187.714L-4.12696 187.674L63.4668 128.559L63.493 128.599Z" fill="#A68272"/>
<path d="M77.6943 137.773L-4.1007 187.714L-4.12696 187.674L77.6681 137.734L77.6943 137.773Z" fill="#A68272"/>
<path d="M78.1537 138.692L-4.1007 187.714L-4.12696 187.675L78.1274 138.64L78.1537 138.692Z" fill="#A68272"/>
<path d="M79.5318 139.598L-4.1007 187.714L-4.12696 187.675L79.5055 139.558L79.5318 139.598Z" fill="#A68272"/>
<path d="M80.8811 141.384L-4.11768 187.669L-4.09257 187.715L80.9062 141.43L80.8811 141.384Z" fill="#A68272"/>
<path d="M84.5718 146.016L-4.10064 187.714L-4.11377 187.674L84.5456 145.976L84.5718 146.016Z" fill="#A68272"/>
<path d="M90.9769 154.731L-4.10063 187.714L-4.11377 187.674L90.9638 154.678L90.9769 154.731Z" fill="#A68272"/>
<path d="M98.7731 163.433L-4.10063 187.714L-4.11377 187.674L98.76 163.38L98.7731 163.433Z" fill="#A68272"/>
<path d="M104.719 168.932L-4.10063 187.727L-4.11377 187.675L104.719 168.88L104.719 168.932Z" fill="#A68272"/>
<path d="M108.84 172.594L-4.10063 187.727L-4.11377 187.674L108.84 172.554L108.84 172.594Z" fill="#A68272"/>
<path d="M113.428 176.199L-4.10034 187.66L-4.09524 187.712L113.433 176.251L113.428 176.199Z" fill="#A68272"/>
<path d="M119.839 182.687L-4.11377 187.727L-4.11377 187.661L119.839 182.621L119.839 182.687Z" fill="#A68272"/>
<path d="M125.797 189.04L125.797 189.092L-4.11377 187.727L-4.11377 187.661L125.797 189.04Z" fill="#A68272"/>
<path d="M130.378 192.242L130.378 192.308L-4.11377 187.727L-4.11377 187.661L130.378 192.242Z" fill="#A68272"/>
<path d="M49.5281 79.1044L-4.08759 187.701L-4.12696 187.688L49.4755 79.0782L49.5281 79.1044Z" fill="#A68272"/>
<path d="M46.0893 92.1638L-4.08759 187.701L-4.12696 187.688L46.0368 92.1376L46.0893 92.1638Z" fill="#A68272"/>
<path d="M46.0893 102.48L-4.08759 187.701L-4.12696 187.688L46.0499 102.454L46.0893 102.48Z" fill="#A68272"/>
<path d="M47.4674 107.284L-4.08759 187.714L-4.12696 187.688L47.4149 107.258L47.4674 107.284Z" fill="#A68272"/>
<path d="M50.2105 112.797L-4.08759 187.714L-4.12696 187.688L50.1712 112.757L50.2105 112.797Z" fill="#A68272"/>
<path d="M52.9537 120.343L-4.08759 187.714L-4.12696 187.674L52.9274 120.317L52.9537 120.343Z" fill="#A68272"/>
<path d="M60.5137 133.416L-4.08758 187.714L-4.12696 187.675L60.4874 133.376L60.5137 133.416Z" fill="#A68272"/>
<path d="M68.0737 147.158L-4.10064 187.714L-4.11377 187.675L68.0475 147.118L68.0737 147.158Z" fill="#A68272"/>
<path d="M79.755 161.595L-4.10063 187.714L-4.11377 187.675L79.7419 161.556L79.755 161.595Z" fill="#A68272"/>
<path d="M89.3756 171.912L-4.10063 187.714L-4.11377 187.675L89.3625 171.859L89.3756 171.912Z" fill="#A68272"/>
<path d="M98.9962 178.789L-4.10063 187.714L-4.11377 187.674L98.9831 178.736L98.9962 178.789Z" fill="#A68272"/>
<path d="M110.677 186.349L-4.11377 187.727L-4.11377 187.675L110.677 186.296L110.677 186.349Z" fill="#A68272"/>
<path d="M123.737 193.161L123.737 193.226L-4.11377 187.727L-4.11377 187.661L123.737 193.161Z" fill="#A68272"/>
<path d="M132.675 193.161L132.675 193.226L-4.11377 187.727L-4.11377 187.661L132.675 193.161Z" fill="#A68272"/>
<path d="M130.391 162.068L-4.10063 187.727L-4.11377 187.661L130.378 162.015L130.391 162.068Z" fill="#A68272"/>
<path d="M130.376 162.957L-4.11768 187.689L-4.10818 187.741L130.386 163.008L130.376 162.957Z" fill="#A68272"/>
<path d="M130.376 162.957L-4.11768 187.689L-4.10818 187.741L130.386 163.008L130.376 162.957Z" fill="#A68272"/>
<path d="M130.391 165.729L-4.10063 187.727L-4.11377 187.661L130.378 165.677L130.391 165.729Z" fill="#A68272"/>
<path d="M130.389 169.341L-4.10669 187.669L-4.0996 187.721L130.396 169.393L130.389 169.341Z" fill="#A68272"/>
<path d="M131.297 172.148L-4.10063 187.727L-4.11377 187.661L131.297 172.082L131.297 172.148Z" fill="#A68272"/>
<path d="M132.204 175.766L-4.1189 187.668L-4.11433 187.721L132.208 175.818L132.204 175.766Z" fill="#A68272"/>
<path d="M132.216 179.471L-4.10063 187.727L-4.11377 187.661L132.216 179.419L132.216 179.471Z" fill="#A68272"/>
<path d="M132.216 182.228L-4.11377 187.727L-4.11377 187.661L132.216 182.162L132.216 182.228Z" fill="#A68272"/>
<path d="M133.134 184.971L-4.11377 187.727L-4.11377 187.661L133.134 184.918L133.134 184.971Z" fill="#A68272"/>
<path d="M131.31 164.811L-4.10063 187.727L-4.11377 187.661L131.297 164.758L131.31 164.811Z" fill="#A68272"/>
<path d="M131.297 166.648L-4.10063 187.727L-4.11377 187.661L131.297 166.583L131.297 166.648Z" fill="#A68272"/>
<path d="M88.68 197.295L88.68 197.334L-4.11377 187.714L-4.10063 187.674L88.68 197.295Z" fill="#A68272"/>
<path d="M138.634 168.013L88.6932 197.334L88.667 197.295L138.621 167.974L138.634 168.013Z" fill="#A68272"/>
<path d="M146.889 159.758L88.6932 197.335L88.667 197.295L146.863 159.718L146.889 159.758Z" fill="#A68272"/>
<path d="M146.889 159.758L88.6932 197.335L88.667 197.295L146.863 159.718L146.889 159.758Z" fill="#A68272"/>
<path d="M143.214 189.551L88.6799 197.334L88.6799 197.295L143.201 189.512L143.214 189.551Z" fill="#A68272"/>
<path d="M126.27 252.289L126.244 252.315L88.667 197.334L88.7064 197.308L126.27 252.289Z" fill="#A68272"/>
<path d="M108.407 268.8L108.368 268.8L88.6538 197.321L88.7063 197.308L108.407 268.8Z" fill="#A68272"/>
<path d="M88.7061 197.321L80.4505 253.221L80.4111 253.221L88.6668 197.308L88.7061 197.321Z" fill="#A68272"/>
<path d="M88.6931 197.335L62.5743 214.738L62.5481 214.712L88.6669 197.295L88.6931 197.335Z" fill="#A68272"/>
<path d="M88.6799 197.295L88.6799 197.335L71.7224 191.376L71.7355 191.349L88.6799 197.295Z" fill="#A68272"/>
<path d="M90.0713 189.525L88.6932 197.321L88.667 197.321L90.0451 189.525L90.0713 189.525Z" fill="#A68272"/>
<path d="M107.921 196.416L88.6802 197.334L88.6802 197.295L107.921 196.389L107.921 196.416Z" fill="#A68272"/>
<path d="M114.353 210.591L114.326 210.617L88.6802 197.335L88.6933 197.295L114.353 210.591Z" fill="#A68272"/>
<path d="M94.2056 313.241L94.1532 313.241L88.6538 197.321L88.7063 197.321L94.2056 313.241Z" fill="#A68272"/>
<path d="M90.5438 315.538L90.4913 315.538L88.6538 197.321L88.7063 197.321L90.5438 315.538Z" fill="#A68272"/>
<path d="M88.7064 197.321L84.1257 321.956L84.0732 321.956L88.6539 197.321L88.7064 197.321Z" fill="#A68272"/>
<path d="M167.968 252.748L167.942 252.788L88.667 197.335L88.6932 197.295L167.968 252.748Z" fill="#A68272"/>
<path d="M167.049 254.113L167.023 254.153L88.667 197.335L88.6932 197.295L167.049 254.113Z" fill="#A68272"/>
<path d="M156.523 274.746L156.484 274.772L88.667 197.335L88.7064 197.295L156.523 274.746Z" fill="#A68272"/>
<path d="M138.66 304.526L138.608 304.553L88.6538 197.335L88.7063 197.308L138.66 304.526Z" fill="#A68272"/>
<path d="M118.946 325.159L118.894 325.172L88.6538 197.321L88.7063 197.308L118.946 325.159Z" fill="#A68272"/>
<path d="M105.664 332.036L105.611 332.036L88.6538 197.321L88.7063 197.308L105.664 332.036Z" fill="#A68272"/>
<path d="M96.9619 331.577L96.8963 331.577L88.6538 197.321L88.7063 197.321L96.9619 331.577Z" fill="#A68272"/>
<path d="M91.9219 328.821L91.8563 328.834L88.6538 197.321L88.7063 197.321L91.9219 328.821Z" fill="#A68272"/>
<path d="M90.0844 318.741L90.0319 318.741L88.6538 197.321L88.7063 197.321L90.0844 318.741Z" fill="#A68272"/>
<path d="M94.665 295.378L94.6126 295.378L88.6538 197.321L88.7063 197.321L94.665 295.378Z" fill="#A68272"/>
<path d="M102.448 275.665L102.409 275.678L88.6538 197.321L88.7063 197.308L102.448 275.665Z" fill="#A68272"/>
<path d="M106.569 270.165L106.53 270.178L88.6538 197.321L88.7063 197.308L106.569 270.165Z" fill="#A68272"/>
<path d="M109.326 267.422L109.286 267.435L88.6538 197.321L88.7063 197.308L109.326 267.422Z" fill="#A68272"/>
<path d="M111.609 266.044L111.57 266.057L88.667 197.321L88.7064 197.308L111.609 266.044Z" fill="#A68272"/>
<path d="M120.771 259.166L120.731 259.193L88.667 197.321L88.7064 197.308L120.771 259.166Z" fill="#A68272"/>
<path d="M126.27 250.451L126.244 250.478L88.667 197.334L88.7064 197.308L126.27 250.451Z" fill="#A68272"/>
<path d="M130.391 223.414L130.365 223.453L88.667 197.335L88.6932 197.295L130.391 223.414Z" fill="#A68272"/>
<path d="M124.879 193.213L88.6799 197.334L88.6799 197.295L124.879 193.174L124.879 193.213Z" fill="#A68272"/>
<path d="M112.069 167.541L88.6932 197.334L88.667 197.308L112.029 167.528L112.069 167.541Z" fill="#A68272"/>
<path d="M93.2618 152.882L88.677 197.323L88.7162 197.327L93.3009 152.886L93.2618 152.882Z" fill="#A68272"/>
<path d="M88.7061 197.308L88.6667 197.321L71.7092 146.462L71.7486 146.449L88.7061 197.308Z" fill="#A68272"/>
<path d="M88.6931 197.308L88.6668 197.334L47.8875 148.299L47.9137 148.273L88.6931 197.308Z" fill="#A68272"/>
<path d="M88.693 197.295L88.6668 197.335L17.188 159.311L17.2142 159.259L88.693 197.295Z" fill="#A68272"/>
<path d="M88.693 197.295L88.6799 197.335L-8.01196 171.229L-7.99883 171.176L88.693 197.295Z" fill="#A68272"/>
<path d="M88.6801 197.295L88.6801 197.348L-19.4568 177.634L-19.4568 177.594L88.6801 197.295Z" fill="#A68272"/>
<path d="M88.6801 197.295L88.6801 197.348L-19.4568 177.634L-19.4568 177.594L88.6801 197.295Z" fill="#A68272"/>
<path d="M88.6801 197.295L88.6801 197.348L-19.4568 177.634L-19.4568 177.594L88.6801 197.295Z" fill="#A68272"/>
<path d="M139.566 316.444L139.513 316.47L88.6538 197.321L88.7063 197.308L139.566 316.444Z" fill="#A68272"/>
<path d="M149.186 290.785L149.147 290.811L88.6538 197.335L88.7063 197.295L149.186 290.785Z" fill="#A68272"/>
<path d="M150.092 254.573L150.066 254.612L88.667 197.335L88.6932 197.295L150.092 254.573Z" fill="#A68272"/>
<path d="M148.254 225.711L148.241 225.75L88.667 197.335L88.6932 197.295L148.254 225.711Z" fill="#A68272"/>
<path d="M139.093 203.713L139.08 203.753L88.6802 197.335L88.6802 197.295L139.093 203.713Z" fill="#A68272"/>
<path d="M122.595 184.039L88.6933 197.335L88.6802 197.295L122.582 184.013L122.595 184.039Z" fill="#A68272"/>
<path d="M104.273 174.418L88.6932 197.321L88.667 197.308L104.246 174.392L104.273 174.418Z" fill="#A68272"/>
<path d="M88.6932 197.308L88.6669 197.321L79.9519 174.405L79.9913 174.405L88.6932 197.308Z" fill="#A68272"/>
<path d="M88.693 197.295L88.6799 197.335L52.468 179.918L52.4812 179.891L88.693 197.295Z" fill="#A68272"/>
<path d="M88.6802 197.295L88.6802 197.335L37.8208 183.593L37.8208 183.553L88.6802 197.295Z" fill="#A68272"/>
<path d="M96.4895 183.12L88.6932 197.321L88.667 197.308L96.4501 183.107L96.4895 183.12Z" fill="#A68272"/>
<path d="M88.6931 197.334L-24.4838 275.244L-24.51 275.192L88.6669 197.295L88.6931 197.334Z" fill="#A68272"/>
<path d="M88.6932 197.335L-22.6462 268.367L-22.6856 268.315L88.667 197.295L88.6932 197.335Z" fill="#A68272"/>
<path d="M88.6931 197.334L-21.7406 262.408L-21.7669 262.356L88.6669 197.295L88.6931 197.334Z" fill="#A68272"/>
<path d="M88.693 197.334L-18.9845 258.287L-19.0107 258.234L88.6668 197.295L88.693 197.334Z" fill="#A68272"/>
<path d="M88.6933 197.334L-17.6192 255.99L-17.6323 255.951L88.6671 197.295L88.6933 197.334Z" fill="#A68272"/>
<path d="M88.6932 197.334L-15.3224 254.166L-15.3486 254.113L88.667 197.295L88.6932 197.334Z" fill="#A68272"/>
<path d="M88.6931 197.334L-11.2013 250.95L-11.2275 250.911L88.6668 197.295L88.6931 197.334Z" fill="#A68272"/>
<path d="M88.6932 197.334L-5.70178 249.126L-5.72803 249.073L88.667 197.295L88.6932 197.334Z" fill="#A68272"/>
<path d="M88.6932 197.334L4.83753 244.991L4.81128 244.952L88.6669 197.295L88.6932 197.334Z" fill="#A68272"/>
<path d="M88.6931 197.335L19.0387 240.411L19.0256 240.371L88.6669 197.295L88.6931 197.335Z" fill="#A68272"/>
<path d="M88.6931 197.335L33.2531 238.114L33.2268 238.088L88.6668 197.295L88.6931 197.335Z" fill="#A68272"/>
<path d="M88.6706 197.276L44.2246 238.061L44.2512 238.09L88.6972 197.305L88.6706 197.276Z" fill="#A68272"/>
<path d="M88.6931 197.334L56.6287 238.114L56.5894 238.088L88.6669 197.308L88.6931 197.334Z" fill="#A68272"/>
<path d="M88.7062 197.321L72.2081 237.195L72.1687 237.182L88.6668 197.308L88.7062 197.321Z" fill="#A68272"/>
<path d="M88.7063 197.321L79.9913 236.263L79.9519 236.263L88.6669 197.308L88.7063 197.321Z" fill="#A68272"/>
<path d="M88.7063 197.321L85.95 233.98L85.9106 233.98L88.6669 197.321L88.7063 197.321Z" fill="#A68272"/>
<path d="M91.9088 230.305L91.8695 230.305L88.667 197.322L88.7064 197.322L91.9088 230.305Z" fill="#A68272"/>
<path d="M96.0301 226.643L96.0039 226.643L88.667 197.321L88.6932 197.308L96.0301 226.643Z" fill="#A68272"/>
<path d="M100.611 219.765L100.584 219.778L88.667 197.321L88.6932 197.308L100.611 219.765Z" fill="#A68272"/>
<path d="M107.935 202.335L107.921 202.375L88.6802 197.335L88.6802 197.295L107.935 202.335Z" fill="#A68272"/>
<path d="M107.911 179.924L88.667 197.331L88.6934 197.36L107.937 179.954L107.911 179.924Z" fill="#A68272"/>
<path d="M105.191 159.285L88.7064 197.321L88.667 197.308L105.165 159.285L105.191 159.285Z" fill="#A68272"/>
<path d="M99.1966 146.9L88.6584 197.299L88.697 197.307L99.2352 146.908L99.1966 146.9Z" fill="#A68272"/>
<path d="M94.2057 140.963L88.7064 197.321L88.667 197.321L94.1532 140.949L94.2057 140.963Z" fill="#A68272"/>
<path d="M88.7062 197.321L88.6668 197.321L85.4512 135.45L85.4905 135.45L88.7062 197.321Z" fill="#A68272"/>
<path d="M88.7063 197.308L88.667 197.322L75.3713 131.802L75.4107 131.788L88.7063 197.308Z" fill="#A68272"/>
<path d="M88.7063 197.308L88.6669 197.321L66.6694 128.126L66.7088 128.113L88.7063 197.308Z" fill="#A68272"/>
<path d="M88.7063 197.308L88.6669 197.321L59.3325 127.221L59.3719 127.208L88.7063 197.308Z" fill="#A68272"/>
<path d="M88.7064 197.308L88.667 197.321L51.0901 123.559L51.1295 123.533L88.7064 197.308Z" fill="#A68272"/>
<path d="M88.693 197.295L88.6799 197.335L-2.05322 166.635L-2.0401 166.596L88.693 197.295Z" fill="#A68272"/>
<path d="M88.693 197.295L88.6799 197.335L-2.05322 166.635L-2.0401 166.596L88.693 197.295Z" fill="#A68272"/>
<path d="M88.693 197.295L88.6799 197.335L0.243652 170.77L0.25677 170.717L88.693 197.295Z" fill="#A68272"/>
<path d="M8.30098 186.871L8.29663 186.911L88.8739 195.863L88.8782 195.824L8.30098 186.871Z" fill="#A68272"/>
<path d="M88.68 197.335L22.7007 207.874L22.7007 207.835L88.68 197.295L88.68 197.335Z" fill="#A68272"/>
<path d="M88.6932 197.335L36.4557 226.656L36.4294 226.63L88.667 197.295L88.6932 197.335Z" fill="#A68272"/>
<path d="M88.6933 197.335L46.5358 239.033L46.5095 239.006L88.667 197.295L88.6933 197.335Z" fill="#A68272"/>
<path d="M88.6932 197.335L54.7913 245.438L54.7519 245.425L88.667 197.308L88.6932 197.335Z" fill="#A68272"/>
<path d="M88.7063 197.321L60.7501 249.099L60.7107 249.086L88.667 197.308L88.7063 197.321Z" fill="#A68272"/>
<path d="M88.7062 197.321L67.168 250.937L67.1287 250.924L88.6668 197.308L88.7062 197.321Z" fill="#A68272"/>
<path d="M90.9901 252.762L90.9507 252.762L88.667 197.322L88.7064 197.322L90.9901 252.762Z" fill="#A68272"/>
<path d="M88.6416 197.343L88.6028 197.349L96.93 248.201L96.9689 248.194L88.6416 197.343Z" fill="#A68272"/>
<path d="M105.651 238.547L105.624 238.56L88.667 197.321L88.7064 197.308L105.651 238.547Z" fill="#A68272"/>
<path d="M114.353 223.427L114.326 223.453L88.667 197.334L88.6932 197.308L114.353 223.427Z" fill="#A68272"/>
<path d="M124.42 197.295L88.6802 197.295L88.6802 197.335L124.42 197.335L124.42 197.295Z" fill="#A68272"/>
<path d="M125.811 170.297L88.6932 197.335L88.667 197.295L125.784 170.271L125.811 170.297Z" fill="#A68272"/>
<path d="M124.446 150.137L88.6932 197.334L88.667 197.308L124.406 150.111L124.446 150.137Z" fill="#A68272"/>
<path d="M119.406 135.463L88.7064 197.321L88.667 197.308L119.366 135.45L119.406 135.463Z" fill="#A68272"/>
<path d="M112.069 126.761L88.7064 197.321L88.667 197.308L112.029 126.748L112.069 126.761Z" fill="#A68272"/>
<path d="M102.908 120.343L88.7063 197.321L88.6538 197.308L102.868 120.33L102.908 120.343Z" fill="#A68272"/>
<path d="M93.2869 117.587L88.7063 197.321L88.6538 197.321L93.2476 117.587L93.2869 117.587Z" fill="#A68272"/>
<path d="M88.7061 197.321L88.6536 197.321L82.708 118.965L82.7474 118.965L88.7061 197.321Z" fill="#A68272"/>
<path d="M88.7063 197.308L88.6538 197.321L72.6282 122.627L72.6675 122.627L88.7063 197.308Z" fill="#A68272"/>
<path d="M88.7062 197.308L88.6668 197.321L63.4668 128.586L63.5062 128.573L88.7062 197.308Z" fill="#A68272"/>
<path d="M88.7063 197.308L88.667 197.321L77.6682 137.747L77.7076 137.747L88.7063 197.308Z" fill="#A68272"/>
<path d="M88.7062 197.308L88.6668 197.322L78.1274 138.666L78.1669 138.666L88.7062 197.308Z" fill="#A68272"/>
<path d="M79.5877 139.547L79.5488 139.553L88.6232 197.303L88.6621 197.297L79.5877 139.547Z" fill="#A68272"/>
<path d="M88.7062 197.308L88.6669 197.321L80.8706 141.422L80.91 141.409L88.7062 197.308Z" fill="#A68272"/>
<path d="M88.7062 197.321L88.6669 197.321L84.5325 146.002L84.5718 145.989L88.7062 197.321Z" fill="#A68272"/>
<path d="M90.9901 154.704L88.7064 197.321L88.667 197.321L90.9507 154.704L90.9901 154.704Z" fill="#A68272"/>
<path d="M98.7864 163.42L88.7064 197.321L88.667 197.308L98.747 163.406L98.7864 163.42Z" fill="#A68272"/>
<path d="M104.732 168.919L88.6932 197.321L88.667 197.308L104.706 168.906L104.732 168.919Z" fill="#A68272"/>
<path d="M108.853 172.581L88.6932 197.335L88.667 197.308L108.827 172.568L108.853 172.581Z" fill="#A68272"/>
<path d="M113.409 176.219L88.6624 197.303L88.6879 197.333L113.435 176.249L113.409 176.219Z" fill="#A68272"/>
<path d="M119.852 182.674L88.6933 197.334L88.6802 197.295L119.839 182.634L119.852 182.674Z" fill="#A68272"/>
<path d="M125.798 189.092L88.6802 197.335L88.6802 197.295L125.798 189.053L125.798 189.092Z" fill="#A68272"/>
<path d="M130.378 192.295L88.6799 197.335L88.6799 197.295L130.378 192.255L130.378 192.295Z" fill="#A68272"/>
<path d="M135.418 192.295L88.6799 197.335L88.6799 197.295L135.418 192.255L135.418 192.295Z" fill="#A68272"/>
<path d="M141.836 192.295L88.6799 197.335L88.6799 197.295L141.836 192.255L141.836 192.295Z" fill="#A68272"/>
<path d="M150.997 192.295L88.6799 197.335L88.6799 197.295L150.997 192.255L150.997 192.295Z" fill="#A68272"/>
<path d="M161.537 191.389L88.6799 197.335L88.6799 197.295L161.537 191.336L161.537 191.389Z" fill="#A68272"/>
<path d="M175.292 189.092L88.6802 197.335L88.6802 197.295L175.279 189.04L175.292 189.092Z" fill="#A68272"/>
<path d="M187.656 186.795L88.6802 197.335L88.6802 197.295L187.656 186.756L187.656 186.795Z" fill="#A68272"/>
<path d="M200.951 178.553L88.6802 197.348L88.6802 197.295L200.938 178.5L200.951 178.553Z" fill="#A68272"/>
<path d="M205.532 170.77L88.6931 197.348L88.6799 197.295L205.519 170.717L205.532 170.77Z" fill="#A68272"/>
<path d="M206.451 161.608L88.6933 197.348L88.6802 197.295L206.438 161.556L206.451 161.608Z" fill="#A68272"/>
<path d="M206.451 146.935L88.6932 197.348L88.667 197.295L206.438 146.895L206.451 146.935Z" fill="#A68272"/>
<path d="M202.329 129.058L88.6932 197.335L88.667 197.295L202.303 129.019L202.329 129.058Z" fill="#A68272"/>
<path d="M195.924 112.114L88.7064 197.335L88.667 197.295L195.885 112.062L195.924 112.114Z" fill="#A68272"/>
<path d="M175.764 94.2377L88.7063 197.335L88.6538 197.295L175.725 94.1983L175.764 94.2377Z" fill="#A68272"/>
<path d="M164.265 95.5624L88.6589 197.292L88.7011 197.323L164.307 95.5937L164.265 95.5624Z" fill="#A68272"/>
<path d="M149.186 97.8995L88.7063 197.335L88.6538 197.308L149.147 97.8733L149.186 97.8995Z" fill="#A68272"/>
<path d="M132.701 102.94L88.7063 197.322L88.6538 197.308L132.649 102.913L132.701 102.94Z" fill="#A68272"/>
<path d="M127.661 102.48L88.7063 197.321L88.6538 197.308L127.609 102.454L127.661 102.48Z" fill="#A68272"/>
<path d="M88.7062 197.308L88.6537 197.321L59.0962 65.3495L59.1487 65.3364L88.7062 197.308Z" fill="#A68272"/>
<path d="M88.7062 197.308L88.6537 197.321L49.4756 79.1045L49.5281 79.0914L88.7062 197.308Z" fill="#A68272"/>
<path d="M88.7062 197.308L88.6537 197.321L46.0369 92.1638L46.0894 92.1506L88.7062 197.308Z" fill="#A68272"/>
<path d="M88.7062 197.308L88.6537 197.321L46.0369 102.48L46.0894 102.454L88.7062 197.308Z" fill="#A68272"/>
<path d="M88.7063 197.308L88.6538 197.321L47.415 107.284L47.4675 107.271L88.7063 197.308Z" fill="#A68272"/>
<path d="M88.7062 197.308L88.6536 197.321L50.1711 112.783L50.2105 112.77L88.7062 197.308Z" fill="#A68272"/>
<path d="M88.7062 197.308L88.6537 197.321L52.9143 120.343L52.9668 120.33L88.7062 197.308Z" fill="#A68272"/>
<path d="M88.7063 197.308L88.6669 197.322L60.4875 133.403L60.5269 133.39L88.7063 197.308Z" fill="#A68272"/>
<path d="M88.7064 197.308L88.667 197.321L68.0476 147.144L68.0739 147.131L88.7064 197.308Z" fill="#A68272"/>
<path d="M88.7063 197.308L88.6669 197.321L79.7288 161.582L79.7681 161.569L88.7063 197.308Z" fill="#A68272"/>
<path d="M89.3889 171.885L88.6932 197.321L88.667 197.321L89.3495 171.885L89.3889 171.885Z" fill="#A68272"/>
<path d="M99.0095 178.763L88.6932 197.321L88.667 197.308L98.9832 178.75L99.0095 178.763Z" fill="#A68272"/>
<path d="M110.678 186.336L88.6933 197.335L88.6802 197.295L110.665 186.31L110.678 186.336Z" fill="#A68272"/>
<path d="M123.737 193.213L88.6799 197.334L88.6799 197.295L123.737 193.174L123.737 193.213Z" fill="#A68272"/>
<path d="M132.675 193.213L88.6799 197.334L88.6799 197.295L132.675 193.174L132.675 193.213Z" fill="#A68272"/>
<path d="M138.857 191.835L88.6802 197.335L88.6802 197.295L138.857 191.796L138.857 191.835Z" fill="#A68272"/>
<path d="M145.052 191.835L88.6802 197.335L88.6802 197.295L145.039 191.796L145.052 191.835Z" fill="#A68272"/>
<path d="M151.234 188.396L88.6799 197.334L88.6799 197.295L151.234 188.357L151.234 188.396Z" fill="#A68272"/>
<path d="M159.476 184.275L88.6802 197.334L88.6802 197.295L159.476 184.236L159.476 184.275Z" fill="#A68272"/>
<path d="M167.732 179.471L88.6799 197.334L88.6799 197.295L167.719 179.419L167.732 179.471Z" fill="#A68272"/>
<path d="M175.292 174.655L88.6931 197.335L88.6799 197.295L175.279 174.615L175.292 174.655Z" fill="#A68272"/>
<path d="M182.17 170.533L88.6933 197.334L88.6802 197.295L182.156 170.494L182.17 170.533Z" fill="#A68272"/>
<path d="M184.913 166.412L88.6933 197.335L88.6802 197.295L184.9 166.36L184.913 166.412Z" fill="#A68272"/>
<path d="M188.351 161.595L88.6933 197.335L88.6802 197.295L188.338 161.556L188.351 161.595Z" fill="#A68272"/>
<path d="M188.351 159.535L88.6932 197.335L88.667 197.295L188.338 159.495L188.351 159.535Z" fill="#A68272"/>
<path d="M187.669 157.474L88.6932 197.335L88.667 197.295L187.656 157.421L187.669 157.474Z" fill="#A68272"/>
<path d="M185.608 153.353L88.6932 197.335L88.667 197.295L185.582 153.3L185.608 153.353Z" fill="#A68272"/>
<path d="M184.23 147.171L88.6932 197.335L88.667 197.295L184.204 147.118L184.23 147.171Z" fill="#A68272"/>
<path d="M180.791 139.598L88.6932 197.335L88.667 197.295L180.765 139.558L180.791 139.598Z" fill="#A68272"/>
<path d="M172.549 124.478L88.6932 197.334L88.667 197.295L172.523 124.438L172.549 124.478Z" fill="#A68272"/>
<path d="M167.063 118.978L88.7064 197.335L88.667 197.295L167.023 118.939L167.063 118.978Z" fill="#A68272"/>
<path d="M159.503 115.54L88.7064 197.335L88.667 197.295L159.45 115.5L159.503 115.54Z" fill="#A68272"/>
<path d="M154.686 115.539L88.7064 197.334L88.667 197.295L154.646 115.513L154.686 115.539Z" fill="#A68272"/>
<path d="M151.943 115.539L88.7064 197.334L88.667 197.295L151.903 115.513L151.943 115.539Z" fill="#A68272"/>
<path d="M148.504 116.222L88.7064 197.335L88.667 197.295L148.464 116.196L148.504 116.222Z" fill="#A68272"/>
<path d="M147.126 116.918L88.7064 197.334L88.667 197.295L147.086 116.891L147.126 116.918Z" fill="#A68272"/>
<path d="M147.126 116.918L88.7064 197.334L88.667 197.295L147.086 116.891L147.126 116.918Z" fill="#A68272"/>
<path d="M146.889 162.973L88.6932 197.334L88.667 197.295L146.863 162.934L146.889 162.973Z" fill="#A68272"/>
<path d="M143.228 159.298L88.6932 197.334L88.667 197.295L143.201 159.272L143.228 159.298Z" fill="#A68272"/>
<path d="M139.566 159.298L88.6932 197.334L88.667 197.295L139.539 159.272L139.566 159.298Z" fill="#A68272"/>
<path d="M137.728 159.298L88.6932 197.334L88.667 197.295L137.702 159.272L137.728 159.298Z" fill="#A68272"/>
<path d="M134.066 159.298L88.6932 197.334L88.667 197.295L134.04 159.272L134.066 159.298Z" fill="#A68272"/>
<path d="M130.391 162.055L88.6932 197.335L88.667 197.295L130.365 162.015L130.391 162.055Z" fill="#A68272"/>
<path d="M130.391 162.973L88.6932 197.334L88.667 197.295L130.365 162.934L130.391 162.973Z" fill="#A68272"/>
<path d="M130.391 162.973L88.6932 197.334L88.667 197.295L130.365 162.934L130.391 162.973Z" fill="#A68272"/>
<path d="M130.391 165.716L88.6932 197.334L88.667 197.295L130.365 165.69L130.391 165.716Z" fill="#A68272"/>
<path d="M130.391 169.378L88.6932 197.335L88.667 197.295L130.378 169.352L130.391 169.378Z" fill="#A68272"/>
<path d="M131.31 172.134L88.6932 197.334L88.667 197.295L131.284 172.095L131.31 172.134Z" fill="#A68272"/>
<path d="M132.216 175.796L88.6933 197.334L88.6802 197.295L132.203 175.757L132.216 175.796Z" fill="#A68272"/>
<path d="M132.216 179.472L88.6931 197.335L88.6799 197.295L132.202 179.432L132.216 179.472Z" fill="#A68272"/>
<path d="M132.216 182.215L88.6933 197.335L88.6802 197.295L132.203 182.175L132.216 182.215Z" fill="#A68272"/>
<path d="M133.135 184.971L88.6802 197.335L88.6802 197.295L133.121 184.931L133.135 184.971Z" fill="#A68272"/>
<path d="M135.891 188.633L88.6799 197.335L88.6799 197.295L135.877 188.593L135.891 188.633Z" fill="#A68272"/>
<path d="M138.634 194.132L88.6799 197.334L88.6799 197.295L138.634 194.093L138.634 194.132Z" fill="#A68272"/>
<path d="M142.296 197.755L142.296 197.794L88.6802 197.335L88.6802 197.295L142.296 197.755Z" fill="#A68272"/>
<path d="M146.876 197.755L146.876 197.794L88.6802 197.335L88.6802 197.295L146.876 197.755Z" fill="#A68272"/>
<path d="M150.551 197.755L150.551 197.794L88.6802 197.335L88.6802 197.295L150.551 197.755Z" fill="#A68272"/>
<path d="M152.376 196.875L88.6802 197.334L88.6802 197.295L152.376 196.836L152.376 196.875Z" fill="#A68272"/>
<path d="M152.376 196.875L88.6802 197.334L88.6802 197.295L152.376 196.836L152.376 196.875Z" fill="#A68272"/>
<path d="M155.132 193.213L88.6799 197.334L88.6799 197.295L155.119 193.174L155.132 193.213Z" fill="#A68272"/>
<path d="M155.132 192.295L88.6799 197.335L88.6799 197.295L155.119 192.255L155.132 192.295Z" fill="#A68272"/>
<path d="M155.128 189.474L88.6855 197.268L88.6901 197.307L155.133 189.513L155.128 189.474Z" fill="#A68272"/>
<path d="M155.132 186.795L88.6802 197.335L88.6802 197.295L155.119 186.756L155.132 186.795Z" fill="#A68272"/>
<path d="M155.132 183.133L88.6802 197.335L88.6802 197.295L155.119 183.094L155.132 183.133Z" fill="#A68272"/>
<path d="M155.132 180.39L88.6802 197.334L88.6802 197.295L155.119 180.338L155.132 180.39Z" fill="#A68272"/>
<path d="M155.132 175.796L88.6933 197.334L88.6802 197.295L155.119 175.757L155.132 175.796Z" fill="#A68272"/>
<path d="M154.213 171.216L88.6931 197.335L88.6799 197.295L154.2 171.176L154.213 171.216Z" fill="#A68272"/>
<path d="M151.47 166.635L88.6932 197.335L88.667 197.295L151.457 166.596L151.47 166.635Z" fill="#A68272"/>
<path d="M150.551 163.892L88.6932 197.335L88.667 197.295L150.538 163.853L150.551 163.892Z" fill="#A68272"/>
<path d="M149.622 160.182L88.6731 197.298L88.6936 197.332L149.642 160.216L149.622 160.182Z" fill="#A68272"/>
<path d="M149.646 159.298L88.6932 197.334L88.667 197.295L149.619 159.272L149.646 159.298Z" fill="#A68272"/>
<path d="M145.971 155.636L88.6932 197.335L88.667 197.295L145.944 155.597L145.971 155.636Z" fill="#A68272"/>
<path d="M144.146 154.718L88.6932 197.335L88.667 197.295L144.12 154.691L144.146 154.718Z" fill="#A68272"/>
<path d="M142.309 154.718L88.6932 197.335L88.667 197.295L142.283 154.691L142.309 154.718Z" fill="#A68272"/>
<path d="M138.647 154.718L88.6932 197.335L88.667 197.295L138.621 154.691L138.647 154.718Z" fill="#A68272"/>
<path d="M136.809 154.718L88.6932 197.335L88.667 197.295L136.783 154.691L136.809 154.718Z" fill="#A68272"/>
<path d="M136.809 154.718L88.6932 197.335L88.667 197.295L136.783 154.691L136.809 154.718Z" fill="#A68272"/>
<path d="M135.891 156.555L88.6932 197.335L88.667 197.295L135.864 156.516L135.891 156.555Z" fill="#A68272"/>
<path d="M135.891 156.555L88.6932 197.335L88.667 197.295L135.864 156.516L135.891 156.555Z" fill="#A68272"/>
<path d="M135.891 158.38L88.6932 197.335L88.667 197.295L135.864 158.353L135.891 158.38Z" fill="#A68272"/>
<path d="M134.066 161.136L88.6932 197.335L88.667 197.295L134.04 161.11L134.066 161.136Z" fill="#A68272"/>
<path d="M131.31 164.798L88.6932 197.334L88.667 197.295L131.284 164.771L131.31 164.798Z" fill="#A68272"/>
<path d="M131.31 166.635L88.6932 197.335L88.667 197.295L131.284 166.609L131.31 166.635Z" fill="#A68272"/>
<path d="M149.856 200.038L149.856 200.091L88.6802 197.335L88.6802 197.295L149.856 200.038Z" fill="#A68272"/>
<path d="M149.869 200.064L149.842 200.078L138.607 168L138.647 167.987L149.869 200.064Z" fill="#A68272"/>
<path d="M149.869 200.064L149.842 200.064L146.863 159.745L146.889 159.745L149.869 200.064Z" fill="#A68272"/>
<path d="M149.869 200.064L149.842 200.064L146.863 159.745L146.889 159.745L149.869 200.064Z" fill="#A68272"/>
<path d="M149.869 200.065L149.842 200.078L143.201 189.538L143.227 189.525L149.869 200.065Z" fill="#A68272"/>
<path d="M149.869 200.078L126.27 252.315L126.244 252.289L149.842 200.065L149.869 200.078Z" fill="#A68272"/>
<path d="M149.869 200.078L108.407 268.813L108.367 268.787L149.829 200.051L149.869 200.078Z" fill="#A68272"/>
<path d="M149.869 200.078L80.4506 253.234L80.4243 253.208L149.842 200.051L149.869 200.078Z" fill="#A68272"/>
<path d="M149.856 200.091L62.5613 214.751L62.5613 214.712L149.856 200.038L149.856 200.091Z" fill="#A68272"/>
<path d="M149.856 200.038L149.856 200.091L71.7224 191.389L71.7355 191.336L149.856 200.038Z" fill="#A68272"/>
<path d="M149.856 200.038L149.856 200.091L90.0581 189.551L90.0581 189.512L149.856 200.038Z" fill="#A68272"/>
<path d="M149.856 200.051L149.856 200.078L107.921 196.416L107.921 196.376L149.856 200.051Z" fill="#A68272"/>
<path d="M149.856 200.078L114.352 210.617L114.339 210.591L149.856 200.051L149.856 200.078Z" fill="#A68272"/>
<path d="M149.882 200.078L94.2055 313.255L94.1531 313.241L149.829 200.051L149.882 200.078Z" fill="#A68272"/>
<path d="M149.882 200.078L90.5437 315.551L90.4912 315.525L149.829 200.051L149.882 200.078Z" fill="#A68272"/>
<path d="M167.968 252.748L167.942 252.775L149.829 200.078L149.869 200.065L167.968 252.748Z" fill="#A68272"/>
<path d="M167.062 254.126L167.023 254.14L149.829 200.078L149.869 200.065L167.062 254.126Z" fill="#A68272"/>
<path d="M156.523 274.759L156.484 274.759L149.829 200.065L149.869 200.065L156.523 274.759Z" fill="#A68272"/>
<path d="M149.882 200.065L138.66 304.54L138.607 304.54L149.829 200.065L149.882 200.065Z" fill="#A68272"/>
<path d="M149.882 200.078L118.946 325.172L118.894 325.159L149.829 200.065L149.882 200.078Z" fill="#A68272"/>
<path d="M149.882 200.078L90.0845 318.754L90.032 318.728L149.829 200.051L149.882 200.078Z" fill="#A68272"/>
<path d="M149.869 200.078L94.665 295.391L94.6125 295.365L149.829 200.051L149.869 200.078Z" fill="#A68272"/>
<path d="M149.869 200.078L102.448 275.691L102.409 275.665L149.829 200.051L149.869 200.078Z" fill="#A68272"/>
<path d="M149.869 200.078L106.569 270.191L106.53 270.165L149.829 200.051L149.869 200.078Z" fill="#A68272"/>
<path d="M149.869 200.078L109.326 267.435L109.286 267.409L149.829 200.051L149.869 200.078Z" fill="#A68272"/>
<path d="M149.869 200.078L111.609 266.057L111.57 266.044L149.829 200.051L149.869 200.078Z" fill="#A68272"/>
<path d="M149.869 200.078L120.771 259.18L120.731 259.166L149.829 200.065L149.869 200.078Z" fill="#A68272"/>
<path d="M149.869 200.078L126.27 250.478L126.244 250.465L149.842 200.065L149.869 200.078Z" fill="#A68272"/>
<path d="M149.869 200.078L130.391 223.453L130.365 223.427L149.842 200.051L149.869 200.078Z" fill="#A68272"/>
<path d="M149.856 200.051L149.856 200.078L124.879 193.213L124.892 193.174L149.856 200.051Z" fill="#A68272"/>
<path d="M149.869 200.051L149.842 200.078L112.042 167.554L112.069 167.514L149.869 200.051Z" fill="#A68272"/>
<path d="M149.869 200.052L149.843 200.078L93.2476 152.893L93.2738 152.854L149.869 200.052Z" fill="#A68272"/>
<path d="M149.869 200.051L149.842 200.091L71.7092 146.475L71.7355 146.436L149.869 200.051Z" fill="#A68272"/>
<path d="M149.869 200.038L149.842 200.091L47.8875 148.313L47.9137 148.26L149.869 200.038Z" fill="#A68272"/>
<path d="M149.882 200.078L128.58 332.036L128.514 332.023L149.829 200.065L149.882 200.078Z" fill="#A68272"/>
<path d="M149.882 200.065L139.579 316.457L139.513 316.457L149.829 200.065L149.882 200.065Z" fill="#A68272"/>
<path d="M149.882 200.065L149.186 290.798L149.147 290.798L149.829 200.065L149.882 200.065Z" fill="#A68272"/>
<path d="M150.105 254.599L150.066 254.599L149.829 200.065L149.869 200.065L150.105 254.599Z" fill="#A68272"/>
<path d="M149.869 200.065L148.268 225.724L148.228 225.724L149.843 200.065L149.869 200.065Z" fill="#A68272"/>
<path d="M149.856 200.078L139.093 203.753L139.08 203.713L149.856 200.051L149.856 200.078Z" fill="#A68272"/>
<path d="M149.869 200.051L149.842 200.078L122.582 184.039L122.595 184.013L149.869 200.051Z" fill="#A68272"/>
<path d="M149.869 200.051L149.843 200.078L104.246 174.431L104.273 174.392L149.869 200.051Z" fill="#A68272"/>
<path d="M149.856 200.038L149.843 200.091L79.9651 174.431L79.9782 174.392L149.856 200.038Z" fill="#A68272"/>
<path d="M149.856 200.038L149.856 200.091L52.4812 179.931L52.4812 179.878L149.856 200.038Z" fill="#A68272"/>
<path d="M39.347 183.952L39.3391 184.004L151.449 200.99L151.457 200.938L39.347 183.952Z" fill="#A68272"/>
<path d="M149.856 200.051L149.843 200.091L96.4631 183.133L96.4763 183.094L149.856 200.051Z" fill="#A68272"/>
<path d="M149.869 200.091L19.0387 240.424L19.0256 240.358L149.843 200.038L149.869 200.091Z" fill="#A68272"/>
<path d="M149.869 200.091L33.2402 238.127L33.227 238.074L149.843 200.038L149.869 200.091Z" fill="#A68272"/>
<path d="M149.869 200.091L44.2387 238.127L44.2256 238.074L149.842 200.038L149.869 200.091Z" fill="#A68272"/>
<path d="M149.869 200.091L56.6157 238.127L56.6025 238.074L149.843 200.038L149.869 200.091Z" fill="#A68272"/>
<path d="M149.869 200.091L72.1949 237.208L72.1687 237.156L149.842 200.038L149.869 200.091Z" fill="#A68272"/>
<path d="M149.869 200.091L79.9913 236.29L79.9651 236.25L149.843 200.051L149.869 200.091Z" fill="#A68272"/>
<path d="M149.869 200.091L85.937 233.993L85.9238 233.953L149.843 200.051L149.869 200.091Z" fill="#A68272"/>
<path d="M149.869 200.078L91.8957 230.331L91.8826 230.291L149.843 200.051L149.869 200.078Z" fill="#A68272"/>
<path d="M149.869 200.078L96.0299 226.656L96.0037 226.63L149.842 200.051L149.869 200.078Z" fill="#A68272"/>
<path d="M149.855 200.078L100.597 219.791L100.584 219.752L149.842 200.051L149.855 200.078Z" fill="#A68272"/>
<path d="M149.856 200.078L107.921 202.375L107.921 202.335L149.856 200.051L149.856 200.078Z" fill="#A68272"/>
<path d="M149.869 200.051L149.843 200.078L107.921 179.918L107.935 179.891L149.869 200.051Z" fill="#A68272"/>
<path d="M105.177 159.308L105.15 159.337L149.864 200.081L149.891 200.052L105.177 159.308Z" fill="#A68272"/>
<path d="M149.869 200.051L149.843 200.078L99.2063 146.921L99.2325 146.895L149.869 200.051Z" fill="#A68272"/>
<path d="M149.869 200.051L149.843 200.078L94.1663 140.976L94.1925 140.936L149.869 200.051Z" fill="#A68272"/>
<path d="M149.869 200.051L149.842 200.078L85.4512 135.476L85.4905 135.437L149.869 200.051Z" fill="#A68272"/>
<path d="M149.869 200.052L149.843 200.078L75.3713 131.815L75.4107 131.775L149.869 200.052Z" fill="#A68272"/>
<path d="M149.869 200.051L149.843 200.091L66.6694 128.153L66.7088 128.113L149.869 200.051Z" fill="#A68272"/>
<path d="M149.869 200.038L149.843 200.091L59.3325 127.234L59.3719 127.195L149.869 200.038Z" fill="#A68272"/>
<path d="M149.869 200.038L149.843 200.091L51.0901 123.559L51.1295 123.52L149.869 200.038Z" fill="#A68272"/>
<path d="M149.856 200.091L22.7007 207.887L22.7007 207.834L149.856 200.038L149.856 200.091Z" fill="#A68272"/>
<path d="M149.855 200.091L36.4555 226.669L36.4424 226.616L149.842 200.038L149.855 200.091Z" fill="#A68272"/>
<path d="M149.869 200.091L46.5356 239.046L46.5225 238.993L149.842 200.038L149.869 200.091Z" fill="#A68272"/>
<path d="M149.869 200.091L54.7783 245.451L54.7651 245.411L149.843 200.038L149.869 200.091Z" fill="#A68272"/>
<path d="M149.869 200.091L60.7367 249.126L60.7236 249.073L149.842 200.038L149.869 200.091Z" fill="#A68272"/>
<path d="M149.869 200.091L67.1549 250.95L67.1287 250.911L149.842 200.038L149.869 200.091Z" fill="#A68272"/>
<path d="M149.869 200.078L90.9901 252.775L90.9639 252.748L149.843 200.051L149.869 200.078Z" fill="#A68272"/>
<path d="M149.869 200.078L96.9488 248.194L96.9094 248.168L149.843 200.051L149.869 200.078Z" fill="#A68272"/>
<path d="M149.869 200.078L105.65 238.573L105.624 238.547L149.842 200.051L149.869 200.078Z" fill="#A68272"/>
<path d="M149.869 200.078L114.352 223.453L114.326 223.414L149.842 200.051L149.869 200.078Z" fill="#A68272"/>
<path d="M149.856 200.051L149.856 200.078L124.419 197.335L124.419 197.295L149.856 200.051Z" fill="#A68272"/>
<path d="M149.869 200.051L149.843 200.078L125.784 170.297L125.811 170.271L149.869 200.051Z" fill="#A68272"/>
<path d="M149.869 200.064L149.843 200.077L124.406 150.124L124.446 150.111L149.869 200.064Z" fill="#A68272"/>
<path d="M149.869 200.064L149.829 200.078L119.366 135.463L119.406 135.45L149.869 200.064Z" fill="#A68272"/>
<path d="M149.869 200.051L149.829 200.078L112.029 126.761L112.069 126.735L149.869 200.051Z" fill="#A68272"/>
<path d="M149.869 200.051L149.829 200.078L102.868 120.343L102.908 120.317L149.869 200.051Z" fill="#A68272"/>
<path d="M149.869 200.051L149.829 200.078L93.2476 117.6L93.2869 117.574L149.869 200.051Z" fill="#A68272"/>
<path d="M149.869 200.052L149.829 200.078L82.708 118.978L82.7474 118.952L149.869 200.052Z" fill="#A68272"/>
<path d="M149.869 200.051L149.843 200.078L72.6282 122.64L72.6675 122.614L149.869 200.051Z" fill="#A68272"/>
<path d="M149.869 200.051L149.842 200.091L63.4668 128.599L63.4931 128.559L149.869 200.051Z" fill="#A68272"/>
<path d="M149.869 200.051L149.843 200.078L77.6682 137.773L77.6944 137.734L149.869 200.051Z" fill="#A68272"/>
<path d="M77.7164 139.217L77.6829 139.258L150.31 199.575L150.343 199.535L77.7164 139.217Z" fill="#A68272"/>
<path d="M79.5445 139.529L79.5103 139.569L149.819 200.087L149.854 200.047L79.5445 139.529Z" fill="#A68272"/>
<path d="M149.869 200.051L149.842 200.078L80.8706 141.435L80.91 141.396L149.869 200.051Z" fill="#A68272"/>
<path d="M149.869 200.051L149.843 200.077L84.5457 146.016L84.5719 145.976L149.869 200.051Z" fill="#A68272"/>
<path d="M149.869 200.051L149.843 200.078L90.9639 154.718L90.9901 154.691L149.869 200.051Z" fill="#A68272"/>
<path d="M149.869 200.051L149.842 200.078L98.7468 163.433L98.7731 163.393L149.869 200.051Z" fill="#A68272"/>
<path d="M149.869 200.051L149.842 200.078L104.706 168.919L104.732 168.893L149.869 200.051Z" fill="#A68272"/>
<path d="M149.869 200.051L149.843 200.078L108.827 172.594L108.853 172.554L149.869 200.051Z" fill="#A68272"/>
<path d="M149.869 200.051L149.843 200.078L113.421 176.256L113.434 176.216L149.869 200.051Z" fill="#A68272"/>
<path d="M149.869 200.051L149.843 200.078L119.839 182.674L119.852 182.634L149.869 200.051Z" fill="#A68272"/>
<path d="M149.856 200.051L149.843 200.078L125.798 189.079L125.811 189.053L149.856 200.051Z" fill="#A68272"/>
<path d="M149.856 200.051L149.843 200.078L130.378 192.294L130.391 192.255L149.856 200.051Z" fill="#A68272"/>
<path d="M149.856 200.051L149.843 200.078L135.405 192.294L135.431 192.268L149.856 200.051Z" fill="#A68272"/>
<path d="M149.869 200.051L149.843 200.078L141.823 192.281L141.849 192.268L149.869 200.051Z" fill="#A68272"/>
<path d="M151.011 192.281L149.869 200.064L149.843 200.064L150.984 192.268L151.011 192.281Z" fill="#A68272"/>
<path d="M161.55 191.376L149.869 200.078L149.843 200.051L161.524 191.349L161.55 191.376Z" fill="#A68272"/>
<path d="M175.292 189.079L149.856 200.078L149.843 200.051L175.279 189.053L175.292 189.079Z" fill="#A68272"/>
<path d="M187.669 186.795L149.856 200.078L149.843 200.051L187.656 186.756L187.669 186.795Z" fill="#A68272"/>
<path d="M200.951 178.553L149.856 200.078L149.843 200.051L200.938 178.513L200.951 178.553Z" fill="#A68272"/>
<path d="M205.545 170.756L149.869 200.078L149.843 200.051L205.519 170.717L205.545 170.756Z" fill="#A68272"/>
<path d="M206.451 161.595L149.869 200.078L149.843 200.051L206.438 161.556L206.451 161.595Z" fill="#A68272"/>
<path d="M206.464 146.935L149.869 200.078L149.843 200.051L206.424 146.895L206.464 146.935Z" fill="#A68272"/>
<path d="M202.342 129.058L149.869 200.078L149.829 200.051L202.303 129.032L202.342 129.058Z" fill="#A68272"/>
<path d="M195.924 112.101L149.869 200.078L149.829 200.052L195.885 112.075L195.924 112.101Z" fill="#A68272"/>
<path d="M187.222 100.183L149.882 200.078L149.829 200.065L187.17 100.17L187.222 100.183Z" fill="#A68272"/>
<path d="M175.764 94.2245L149.882 200.078L149.829 200.064L175.725 94.2114L175.764 94.2245Z" fill="#A68272"/>
<path d="M164.306 95.5895L149.882 200.078L149.829 200.065L164.267 95.5895L164.306 95.5895Z" fill="#A68272"/>
<path d="M149.882 200.065L149.829 200.065L149.147 97.8865L149.186 97.8865L149.882 200.065Z" fill="#A68272"/>
<path d="M149.882 200.065L149.83 200.078L132.649 102.927L132.701 102.913L149.882 200.065Z" fill="#A68272"/>
<path d="M149.882 200.065L149.829 200.078L127.609 102.467L127.661 102.454L149.882 200.065Z" fill="#A68272"/>
<path d="M49.6176 113.404L49.5835 113.444L150.415 199.38L150.449 199.34L49.6176 113.404Z" fill="#A68272"/>
<path d="M149.869 200.038L149.842 200.091L52.9275 120.356L52.9537 120.317L149.869 200.038Z" fill="#A68272"/>
<path d="M149.869 200.038L149.843 200.091L60.4875 133.416L60.5138 133.376L149.869 200.038Z" fill="#A68272"/>
<path d="M149.869 200.038L149.843 200.091L68.0476 147.158L68.0739 147.118L149.869 200.038Z" fill="#A68272"/>
<path d="M79.2453 162.488L79.2273 162.523L150.341 199.133L150.359 199.098L79.2453 162.488Z" fill="#A68272"/>
<path d="M149.869 200.051L149.843 200.091L89.3625 171.911L89.3756 171.859L149.869 200.051Z" fill="#A68272"/>
<path d="M149.856 200.051L149.843 200.078L98.9832 178.776L98.9963 178.736L149.856 200.051Z" fill="#A68272"/>
<path d="M149.856 200.051L149.842 200.078L110.664 186.336L110.677 186.296L149.856 200.051Z" fill="#A68272"/>
<path d="M149.856 200.051L149.856 200.078L123.737 193.213L123.737 193.174L149.856 200.051Z" fill="#A68272"/>
<path d="M149.856 200.051L149.842 200.078L132.662 193.213L132.675 193.174L149.856 200.051Z" fill="#A68272"/>
<path d="M138.809 191.828L138.793 191.849L149.858 199.998L149.874 199.977L138.809 191.828Z" fill="#A68272"/>
<path d="M149.869 200.064L149.843 200.078L145.026 191.822L145.052 191.809L149.869 200.064Z" fill="#A68272"/>
<path d="M151.247 188.383L149.869 200.065L149.843 200.065L151.221 188.383L151.247 188.383Z" fill="#A68272"/>
<path d="M159.456 184.24L149.834 200.047L149.867 200.068L159.49 184.26L159.456 184.24Z" fill="#A68272"/>
<path d="M167.732 179.458L149.869 200.078L149.843 200.051L167.719 179.432L167.732 179.458Z" fill="#A68272"/>
<path d="M175.261 174.621L149.832 200.05L149.86 200.078L175.289 174.648L175.261 174.621Z" fill="#A68272"/>
<path d="M182.169 170.533L149.869 200.078L149.843 200.051L182.143 170.494L182.169 170.533Z" fill="#A68272"/>
<path d="M184.926 166.399L149.869 200.078L149.843 200.051L184.899 166.373L184.926 166.399Z" fill="#A68272"/>
<path d="M188.322 161.57L149.834 200.057L149.862 200.085L188.349 161.597L188.322 161.57Z" fill="#A68272"/>
<path d="M188.364 159.521L149.869 200.078L149.843 200.051L188.325 159.495L188.364 159.521Z" fill="#A68272"/>
<path d="M187.669 157.461L149.869 200.078L149.843 200.051L187.643 157.434L187.669 157.461Z" fill="#A68272"/>
<path d="M185.608 153.339L149.869 200.078L149.843 200.051L185.582 153.313L185.608 153.339Z" fill="#A68272"/>
<path d="M184.243 147.158L149.869 200.078L149.843 200.051L184.204 147.131L184.243 147.158Z" fill="#A68272"/>
<path d="M180.804 139.598L149.869 200.078L149.829 200.051L180.765 139.571L180.804 139.598Z" fill="#A68272"/>
<path d="M172.562 124.465L149.869 200.078L149.829 200.065L172.509 124.451L172.562 124.465Z" fill="#A68272"/>
<path d="M167.062 118.965L149.869 200.078L149.829 200.065L167.01 118.952L167.062 118.965Z" fill="#A68272"/>
<path d="M159.502 115.526L149.882 200.064L149.829 200.064L159.45 115.526L159.502 115.526Z" fill="#A68272"/>
<path d="M154.686 115.526L149.882 200.064L149.829 200.064L154.646 115.526L154.686 115.526Z" fill="#A68272"/>
<path d="M151.942 115.526L149.882 200.064L149.829 200.064L151.89 115.526L151.942 115.526Z" fill="#A68272"/>
<path d="M149.882 200.064L149.829 200.064L148.451 116.209L148.504 116.209L149.882 200.064Z" fill="#A68272"/>
<path d="M149.882 200.065L149.829 200.065L147.086 116.905L147.126 116.905L149.882 200.065Z" fill="#A68272"/>
<path d="M149.882 200.065L149.829 200.065L147.086 116.905L147.126 116.905L149.882 200.065Z" fill="#A68272"/>
<path d="M149.869 200.065L149.842 200.065L146.863 162.96L146.889 162.947L149.869 200.065Z" fill="#A68272"/>
<path d="M149.869 200.064L149.843 200.064L143.201 159.285L143.228 159.285L149.869 200.064Z" fill="#A68272"/>
<path d="M149.869 200.064L149.843 200.078L139.526 159.285L139.566 159.285L149.869 200.064Z" fill="#A68272"/>
<path d="M149.869 200.065L149.843 200.078L137.702 159.285L137.728 159.285L149.869 200.065Z" fill="#A68272"/>
<path d="M149.869 200.065L149.842 200.078L134.027 159.298L134.066 159.285L149.869 200.065Z" fill="#A68272"/>
<path d="M149.869 200.064L149.842 200.078L130.365 162.041L130.404 162.028L149.869 200.064Z" fill="#A68272"/>
<path d="M149.869 200.064L149.842 200.078L130.365 162.96L130.404 162.947L149.869 200.064Z" fill="#A68272"/>
<path d="M149.869 200.064L149.842 200.078L130.365 162.96L130.404 162.947L149.869 200.064Z" fill="#A68272"/>
<path d="M149.869 200.064L149.842 200.078L130.365 165.703L130.404 165.69L149.869 200.064Z" fill="#A68272"/>
<path d="M149.869 200.051L149.842 200.078L130.365 169.378L130.404 169.352L149.869 200.051Z" fill="#A68272"/>
<path d="M149.869 200.051L149.842 200.078L131.284 172.121L131.31 172.108L149.869 200.051Z" fill="#A68272"/>
<path d="M149.869 200.051L149.843 200.078L132.203 175.796L132.229 175.77L149.869 200.051Z" fill="#A68272"/>
<path d="M149.869 200.051L149.842 200.078L132.202 179.458L132.229 179.432L149.869 200.051Z" fill="#A68272"/>
<path d="M149.869 200.051L149.843 200.078L132.203 182.201L132.229 182.188L149.869 200.051Z" fill="#A68272"/>
<path d="M149.869 200.051L149.843 200.078L133.121 184.958L133.148 184.931L149.869 200.051Z" fill="#A68272"/>
<path d="M149.869 200.052L149.842 200.078L135.877 188.62L135.891 188.593L149.869 200.052Z" fill="#A68272"/>
<path d="M149.856 200.051L149.842 200.078L138.621 194.119L138.634 194.093L149.856 200.051Z" fill="#A68272"/>
<path d="M149.856 200.051L149.856 200.078L142.296 197.794L142.296 197.768L149.856 200.051Z" fill="#A68272"/>
<path d="M149.869 200.051L149.842 200.078L146.863 197.781L146.889 197.768L149.869 200.051Z" fill="#A68272"/>
<path d="M150.564 197.781L149.869 200.078L149.843 200.065L150.525 197.768L150.564 197.781Z" fill="#A68272"/>
<path d="M152.389 196.875L149.869 200.078L149.843 200.064L152.363 196.849L152.389 196.875Z" fill="#A68272"/>
<path d="M152.389 196.875L149.869 200.078L149.843 200.064L152.363 196.849L152.389 196.875Z" fill="#A68272"/>
<path d="M155.145 193.2L149.869 200.078L149.843 200.064L155.119 193.187L155.145 193.2Z" fill="#A68272"/>
<path d="M155.145 192.281L149.869 200.078L149.843 200.064L155.119 192.268L155.145 192.281Z" fill="#A68272"/>
<path d="M155.145 189.538L149.869 200.078L149.843 200.065L155.119 189.525L155.145 189.538Z" fill="#A68272"/>
<path d="M155.145 186.782L149.869 200.078L149.843 200.065L155.106 186.769L155.145 186.782Z" fill="#A68272"/>
<path d="M155.145 183.12L149.869 200.078L149.843 200.065L155.106 183.107L155.145 183.12Z" fill="#A68272"/>
<path d="M155.145 180.364L149.869 200.078L149.843 200.065L155.106 180.364L155.145 180.364Z" fill="#A68272"/>
<path d="M155.116 175.775L149.844 200.055L149.882 200.063L155.154 175.783L155.116 175.775Z" fill="#A68272"/>
<path d="M154.226 171.203L149.869 200.064L149.843 200.064L154.187 171.203L154.226 171.203Z" fill="#A68272"/>
<path d="M151.483 166.622L149.869 200.064L149.843 200.064L151.444 166.609L151.483 166.622Z" fill="#A68272"/>
<path d="M150.564 163.866L149.869 200.064L149.843 200.064L150.525 163.866L150.564 163.866Z" fill="#A68272"/>
<path d="M149.869 200.064L149.842 200.064L149.606 160.204L149.646 160.204L149.869 200.064Z" fill="#A68272"/>
<path d="M149.869 200.065L149.842 200.065L149.606 159.285L149.646 159.285L149.869 200.065Z" fill="#A68272"/>
<path d="M149.869 200.065L149.829 200.065L145.944 155.623L145.984 155.623L149.869 200.065Z" fill="#A68272"/>
<path d="M149.869 200.064L149.829 200.064L144.107 154.704L144.146 154.704L149.869 200.064Z" fill="#A68272"/>
<path d="M142.3 154.727L142.261 154.734L149.844 200.094L149.883 200.088L142.3 154.727Z" fill="#A68272"/>
<path d="M149.869 200.064L149.842 200.078L138.607 154.704L138.647 154.704L149.869 200.064Z" fill="#A68272"/>
<path d="M149.869 200.065L149.843 200.078L136.783 154.705L136.809 154.691L149.869 200.065Z" fill="#A68272"/>
<path d="M149.869 200.065L149.843 200.078L136.783 154.705L136.809 154.691L149.869 200.065Z" fill="#A68272"/>
<path d="M149.869 200.064L149.842 200.078L135.864 156.542L135.904 156.529L149.869 200.064Z" fill="#A68272"/>
<path d="M149.869 200.064L149.842 200.078L135.864 156.542L135.904 156.529L149.869 200.064Z" fill="#A68272"/>
<path d="M149.869 200.065L149.842 200.078L135.864 158.38L135.904 158.366L149.869 200.065Z" fill="#A68272"/>
<path d="M134.075 161.125L134.038 161.139L149.827 200.101L149.864 200.086L134.075 161.125Z" fill="#A68272"/>
<path d="M149.869 200.064L149.842 200.078L131.284 164.798L131.31 164.771L149.869 200.064Z" fill="#A68272"/>
<path d="M149.869 200.065L149.842 200.078L131.284 166.622L131.31 166.609L149.869 200.065Z" fill="#A68272"/>
<path d="M160.854 200.051L149.856 200.051L149.856 200.078L160.854 200.078L160.854 200.051Z" fill="#A68272"/>
<path d="M160.855 200.038L160.855 200.091L88.6802 197.335L88.6802 197.295L160.855 200.038Z" fill="#A68272"/>
<path d="M138.645 168.027L138.613 168.049L160.843 200.118L160.876 200.096L138.645 168.027Z" fill="#A68272"/>
<path d="M146.907 159.734L146.87 159.747L160.832 200.067L160.869 200.054L146.907 159.734Z" fill="#A68272"/>
<path d="M146.907 159.734L146.87 159.747L160.832 200.067L160.869 200.054L146.907 159.734Z" fill="#A68272"/>
<path d="M160.854 200.051L160.841 200.078L143.201 189.538L143.214 189.512L160.854 200.051Z" fill="#A68272"/>
<path d="M160.868 200.078L126.27 252.315L126.244 252.289L160.841 200.051L160.868 200.078Z" fill="#A68272"/>
<path d="M160.867 200.078L108.407 268.813L108.367 268.787L160.828 200.051L160.867 200.078Z" fill="#A68272"/>
<path d="M160.867 200.091L80.4506 253.234L80.4243 253.194L160.841 200.038L160.867 200.091Z" fill="#A68272"/>
<path d="M160.854 200.091L62.5613 214.751L62.5613 214.712L160.841 200.038L160.854 200.091Z" fill="#A68272"/>
<path d="M160.854 200.038L160.854 200.091L71.7224 191.389L71.7355 191.336L160.854 200.038Z" fill="#A68272"/>
<path d="M160.854 200.038L160.841 200.091L90.0581 189.551L90.0581 189.499L160.854 200.038Z" fill="#A68272"/>
<path d="M107.925 196.551L107.923 196.591L160.87 199.913L160.872 199.873L107.925 196.551Z" fill="#A68272"/>
<path d="M160.854 200.078L114.339 210.63L114.339 210.591L160.841 200.051L160.854 200.078Z" fill="#A68272"/>
<path d="M160.881 200.078L94.2055 313.268L94.1531 313.228L160.828 200.051L160.881 200.078Z" fill="#A68272"/>
<path d="M160.881 200.078L90.5437 315.551L90.4912 315.525L160.828 200.051L160.881 200.078Z" fill="#A68272"/>
<path d="M160.881 200.078L138.66 304.54L138.607 304.54L160.828 200.065L160.881 200.078Z" fill="#A68272"/>
<path d="M160.825 200.059L118.896 325.152L118.946 325.168L160.875 200.076L160.825 200.059Z" fill="#A68272"/>
<path d="M160.868 200.078L94.665 295.391L94.6125 295.365L160.828 200.051L160.868 200.078Z" fill="#A68272"/>
<path d="M160.867 200.078L102.448 275.691L102.409 275.665L160.828 200.051L160.867 200.078Z" fill="#A68272"/>
<path d="M160.868 200.078L106.569 270.191L106.53 270.165L160.828 200.051L160.868 200.078Z" fill="#A68272"/>
<path d="M160.867 200.078L109.326 267.435L109.286 267.409L160.828 200.051L160.867 200.078Z" fill="#A68272"/>
<path d="M160.868 200.078L111.609 266.07L111.57 266.031L160.828 200.051L160.868 200.078Z" fill="#A68272"/>
<path d="M160.839 200.066L120.743 259.177L120.776 259.199L160.872 200.089L160.839 200.066Z" fill="#A68272"/>
<path d="M160.868 200.078L126.27 250.478L126.244 250.465L160.841 200.051L160.868 200.078Z" fill="#A68272"/>
<path d="M160.867 200.078L130.391 223.453L130.365 223.427L160.841 200.051L160.867 200.078Z" fill="#A68272"/>
<path d="M160.854 200.051L160.841 200.078L124.879 193.213L124.892 193.174L160.854 200.051Z" fill="#A68272"/>
<path d="M112.054 167.515L112.032 167.548L160.836 200.084L160.858 200.051L112.054 167.515Z" fill="#A68272"/>
<path d="M160.868 200.052L160.841 200.078L93.2476 152.893L93.2738 152.854L160.868 200.052Z" fill="#A68272"/>
<path d="M160.867 200.038L160.841 200.091L71.7092 146.475L71.7355 146.436L160.867 200.038Z" fill="#A68272"/>
<path d="M160.867 200.038L160.841 200.091L47.8875 148.313L47.9137 148.26L160.867 200.038Z" fill="#A68272"/>
<path d="M160.881 200.078L128.58 332.036L128.514 332.023L160.828 200.065L160.881 200.078Z" fill="#A68272"/>
<path d="M160.881 200.078L139.579 316.457L139.513 316.444L160.828 200.065L160.881 200.078Z" fill="#A68272"/>
<path d="M160.88 200.065L149.186 290.798L149.147 290.798L160.828 200.065L160.88 200.065Z" fill="#A68272"/>
<path d="M159.057 199.635L148.496 254.108L148.535 254.115L159.096 199.643L159.057 199.635Z" fill="#A68272"/>
<path d="M160.867 200.078L148.267 225.737L148.241 225.724L160.841 200.065L160.867 200.078Z" fill="#A68272"/>
<path d="M160.854 200.078L139.093 203.753L139.08 203.713L160.854 200.051L160.854 200.078Z" fill="#A68272"/>
<path d="M160.854 200.051L160.841 200.078L122.582 184.052L122.595 184.013L160.854 200.051Z" fill="#A68272"/>
<path d="M160.855 200.051L160.841 200.091L104.26 174.431L104.273 174.392L160.855 200.051Z" fill="#A68272"/>
<path d="M160.854 200.038L160.841 200.091L79.9651 174.431L79.9782 174.379L160.854 200.038Z" fill="#A68272"/>
<path d="M160.854 200.038L160.841 200.091L52.4812 179.931L52.4812 179.878L160.854 200.038Z" fill="#A68272"/>
<path d="M160.855 200.038L160.841 200.091L37.8208 183.593L37.8208 183.54L160.855 200.038Z" fill="#A68272"/>
<path d="M160.854 200.038L160.841 200.091L96.4631 183.133L96.4763 183.094L160.854 200.038Z" fill="#A68272"/>
<path d="M160.855 200.091L33.2402 238.127L33.227 238.074L160.841 200.038L160.855 200.091Z" fill="#A68272"/>
<path d="M160.854 200.091L44.2387 238.127L44.2256 238.074L160.841 200.038L160.854 200.091Z" fill="#A68272"/>
<path d="M160.854 200.091L56.6157 238.127L56.6025 238.074L160.841 200.038L160.854 200.091Z" fill="#A68272"/>
<path d="M160.854 200.091L72.1949 237.208L72.1687 237.156L160.841 200.038L160.854 200.091Z" fill="#A68272"/>
<path d="M160.854 200.091L79.9913 236.289L79.9651 236.25L160.841 200.038L160.854 200.091Z" fill="#A68272"/>
<path d="M160.854 200.091L85.937 233.993L85.9238 233.953L160.841 200.038L160.854 200.091Z" fill="#A68272"/>
<path d="M160.854 200.091L91.8957 230.331L91.8826 230.291L160.841 200.038L160.854 200.091Z" fill="#A68272"/>
<path d="M160.854 200.091L96.0168 226.669L96.0037 226.616L160.841 200.051L160.854 200.091Z" fill="#A68272"/>
<path d="M160.854 200.091L100.597 219.791L100.584 219.752L160.841 200.051L160.854 200.091Z" fill="#A68272"/>
<path d="M160.855 200.091L107.921 202.375L107.921 202.335L160.855 200.051L160.855 200.091Z" fill="#A68272"/>
<path d="M160.855 200.051L160.841 200.091L107.921 179.931L107.935 179.891L160.855 200.051Z" fill="#A68272"/>
<path d="M160.868 200.051L160.841 200.078L105.165 159.298L105.191 159.272L160.868 200.051Z" fill="#A68272"/>
<path d="M160.868 200.051L160.841 200.078L99.2063 146.935L99.2325 146.895L160.868 200.051Z" fill="#A68272"/>
<path d="M160.868 200.051L160.841 200.078L94.1663 140.976L94.1925 140.936L160.868 200.051Z" fill="#A68272"/>
<path d="M160.867 200.051L160.841 200.078L85.4512 135.476L85.4905 135.437L160.867 200.051Z" fill="#A68272"/>
<path d="M160.868 200.052L160.841 200.091L75.3713 131.815L75.4107 131.775L160.868 200.052Z" fill="#A68272"/>
<path d="M66.7348 128.088L66.7029 128.13L160.82 200.14L160.852 200.099L66.7348 128.088Z" fill="#A68272"/>
<path d="M160.868 200.038L160.841 200.091L59.3325 127.234L59.3719 127.182L160.868 200.038Z" fill="#A68272"/>
<path d="M160.868 200.038L160.841 200.091L51.0901 123.572L51.1295 123.52L160.868 200.038Z" fill="#A68272"/>
<path d="M160.854 200.091L36.4424 226.669L36.4424 226.616L160.841 200.038L160.854 200.091Z" fill="#A68272"/>
<path d="M160.845 200.066L46.519 239.008L46.536 239.058L160.862 200.116L160.845 200.066Z" fill="#A68272"/>
<path d="M160.868 200.091L54.7783 245.451L54.7651 245.411L160.841 200.038L160.868 200.091Z" fill="#A68272"/>
<path d="M160.867 200.091L60.7367 249.126L60.7236 249.073L160.841 200.038L160.867 200.091Z" fill="#A68272"/>
<path d="M160.867 200.091L67.1549 250.95L67.1287 250.911L160.841 200.038L160.867 200.091Z" fill="#A68272"/>
<path d="M160.868 200.078L90.9901 252.775L90.9639 252.748L160.841 200.051L160.868 200.078Z" fill="#A68272"/>
<path d="M160.868 200.078L96.9489 248.194L96.9226 248.155L160.841 200.051L160.868 200.078Z" fill="#A68272"/>
<path d="M160.867 200.078L105.65 238.573L105.624 238.534L160.841 200.051L160.867 200.078Z" fill="#A68272"/>
<path d="M160.854 200.078L114.352 223.453L114.326 223.414L160.841 200.051L160.854 200.078Z" fill="#A68272"/>
<path d="M160.854 200.051L160.854 200.078L124.419 197.335L124.419 197.295L160.854 200.051Z" fill="#A68272"/>
<path d="M160.868 200.051L160.841 200.078L125.784 170.297L125.811 170.271L160.868 200.051Z" fill="#A68272"/>
<path d="M125.042 149.658L125.01 149.681L160.219 200.492L160.252 200.47L125.042 149.658Z" fill="#A68272"/>
<path d="M160.867 200.051L160.828 200.078L119.366 135.476L119.406 135.45L160.867 200.051Z" fill="#A68272"/>
<path d="M160.867 200.051L160.828 200.078L112.029 126.761L112.069 126.735L160.867 200.051Z" fill="#A68272"/>
<path d="M160.868 200.051L160.828 200.078L102.868 120.343L102.908 120.317L160.868 200.051Z" fill="#A68272"/>
<path d="M160.868 200.051L160.828 200.078L93.2476 117.6L93.2869 117.574L160.868 200.051Z" fill="#A68272"/>
<path d="M160.867 200.051L160.828 200.078L82.708 118.978L82.7474 118.939L160.867 200.051Z" fill="#A68272"/>
<path d="M160.868 200.052L160.841 200.091L72.6282 122.64L72.6675 122.601L160.868 200.052Z" fill="#A68272"/>
<path d="M160.867 200.038L160.841 200.091L63.4668 128.599L63.4931 128.559L160.867 200.038Z" fill="#A68272"/>
<path d="M160.868 200.051L160.841 200.091L77.6682 137.773L77.6944 137.734L160.868 200.051Z" fill="#A68272"/>
<path d="M78.1819 138.654L78.1506 138.696L160.845 200.11L160.876 200.068L78.1819 138.654Z" fill="#A68272"/>
<path d="M79.5296 139.608L79.4983 139.65L160.875 200.086L160.907 200.044L79.5296 139.608Z" fill="#A68272"/>
<path d="M160.868 200.051L160.841 200.091L80.8838 141.435L80.9101 141.396L160.868 200.051Z" fill="#A68272"/>
<path d="M84.5926 145.965L84.5623 146.008L160.827 200.127L160.858 200.084L84.5926 145.965Z" fill="#A68272"/>
<path d="M160.868 200.051L160.841 200.091L90.9639 154.718L90.9901 154.691L160.868 200.051Z" fill="#A68272"/>
<path d="M160.867 200.051L160.841 200.078L98.7468 163.433L98.7731 163.393L160.867 200.051Z" fill="#A68272"/>
<path d="M104.715 168.898L104.696 168.933L160.83 200.074L160.849 200.04L104.715 168.898Z" fill="#A68272"/>
<path d="M160.854 200.051L160.841 200.078L108.84 172.594L108.853 172.554L160.854 200.051Z" fill="#A68272"/>
<path d="M113.602 175.927L113.584 175.962L160.694 200.413L160.713 200.378L113.602 175.927Z" fill="#A68272"/>
<path d="M160.854 200.051L160.841 200.078L119.839 182.674L119.852 182.634L160.854 200.051Z" fill="#A68272"/>
<path d="M160.855 200.051L160.841 200.078L125.798 189.092L125.811 189.053L160.855 200.051Z" fill="#A68272"/>
<path d="M160.854 200.051L160.841 200.078L130.378 192.294L130.391 192.255L160.854 200.051Z" fill="#A68272"/>
<path d="M135.481 192.114L135.469 192.152L160.797 200.25L160.809 200.212L135.481 192.114Z" fill="#A68272"/>
<path d="M160.855 200.051L160.841 200.078L141.836 192.295L141.836 192.255L160.855 200.051Z" fill="#A68272"/>
<path d="M160.88 200.065L160.828 200.065L149.147 97.8865L149.186 97.8865L160.88 200.065Z" fill="#A68272"/>
<path d="M160.881 200.065L160.828 200.078L132.649 102.927L132.701 102.913L160.881 200.065Z" fill="#A68272"/>
<path d="M160.881 200.065L160.828 200.078L127.609 102.48L127.661 102.454L160.881 200.065Z" fill="#A68272"/>
<path d="M160.867 200.038L160.841 200.091L52.9275 120.356L52.9537 120.317L160.867 200.038Z" fill="#A68272"/>
<path d="M160.868 200.038L160.841 200.091L60.4875 133.416L60.5138 133.376L160.868 200.038Z" fill="#A68272"/>
<path d="M68.0658 147.108L68.0398 147.153L160.84 200.064L160.866 200.019L68.0658 147.108Z" fill="#A68272"/>
<path d="M160.854 200.038L160.841 200.091L79.7288 161.595L79.755 161.556L160.854 200.038Z" fill="#A68272"/>
<path d="M160.854 200.038L160.841 200.091L89.3625 171.911L89.3756 171.859L160.854 200.038Z" fill="#A68272"/>
<path d="M160.854 200.051L160.841 200.091L98.9832 178.776L98.9963 178.736L160.854 200.051Z" fill="#A68272"/>
<path d="M110.599 186.716L110.589 186.755L160.973 199.728L160.983 199.69L110.599 186.716Z" fill="#A68272"/>
<path d="M160.854 200.051L160.841 200.078L123.737 193.213L123.737 193.174L160.854 200.051Z" fill="#A68272"/>
<path d="M160.854 200.051L160.841 200.078L132.662 193.213L132.675 193.174L160.854 200.051Z" fill="#A68272"/>
<path d="M160.854 200.051L160.841 200.078L138.857 191.835L138.857 191.796L160.854 200.051Z" fill="#A68272"/>
<path d="M160.854 200.051L160.841 200.078L145.039 191.835L145.052 191.809L160.854 200.051Z" fill="#A68272"/>
<path d="M160.881 200.064L160.828 200.078L148.451 116.222L148.504 116.209L160.881 200.064Z" fill="#A68272"/>
<path d="M160.881 200.064L160.828 200.078L147.086 116.904L147.126 116.891L160.881 200.064Z" fill="#A68272"/>
<path d="M160.881 200.064L160.828 200.078L147.086 116.904L147.126 116.891L160.881 200.064Z" fill="#A68272"/>
<path d="M160.867 200.065L160.841 200.078L146.863 162.96L146.889 162.947L160.867 200.065Z" fill="#A68272"/>
<path d="M160.868 200.064L160.841 200.078L143.201 159.298L143.228 159.285L160.868 200.064Z" fill="#A68272"/>
<path d="M160.868 200.064L160.841 200.078L139.526 159.298L139.566 159.285L160.868 200.064Z" fill="#A68272"/>
<path d="M160.868 200.051L160.841 200.077L137.702 159.298L137.728 159.272L160.868 200.051Z" fill="#A68272"/>
<path d="M160.867 200.051L160.841 200.077L134.027 159.298L134.066 159.272L160.867 200.051Z" fill="#A68272"/>
<path d="M160.867 200.051L160.841 200.078L130.365 162.041L130.404 162.028L160.867 200.051Z" fill="#A68272"/>
<path d="M160.867 200.051L160.841 200.078L130.365 162.96L130.404 162.934L160.867 200.051Z" fill="#A68272"/>
<path d="M160.867 200.051L160.841 200.078L130.365 162.96L130.404 162.934L160.867 200.051Z" fill="#A68272"/>
<path d="M160.867 200.051L160.841 200.078L130.365 165.716L130.404 165.69L160.867 200.051Z" fill="#A68272"/>
<path d="M160.867 200.051L160.841 200.078L130.365 169.378L130.391 169.352L160.867 200.051Z" fill="#A68272"/>
<path d="M160.867 200.051L160.841 200.078L131.284 172.134L131.31 172.108L160.867 200.051Z" fill="#A68272"/>
<path d="M160.868 200.051L160.841 200.078L132.203 175.796L132.229 175.77L160.868 200.051Z" fill="#A68272"/>
<path d="M160.867 200.051L160.841 200.078L132.202 179.458L132.229 179.432L160.867 200.051Z" fill="#A68272"/>
<path d="M160.855 200.051L160.841 200.078L132.203 182.215L132.229 182.188L160.855 200.051Z" fill="#A68272"/>
<path d="M160.854 200.051L160.841 200.078L133.121 184.958L133.134 184.931L160.854 200.051Z" fill="#A68272"/>
<path d="M160.854 200.052L160.841 200.078L135.877 188.633L135.891 188.593L160.854 200.052Z" fill="#A68272"/>
<path d="M160.854 200.051L160.841 200.078L138.621 194.132L138.634 194.093L160.854 200.051Z" fill="#A68272"/>
<path d="M160.854 200.051L160.854 200.078L142.296 197.794L142.296 197.755L160.854 200.051Z" fill="#A68272"/>
<path d="M160.854 200.051L160.854 200.078L146.876 197.794L146.876 197.768L160.854 200.051Z" fill="#A68272"/>
<path d="M160.867 200.065L160.828 200.078L149.606 160.204L149.646 160.191L160.867 200.065Z" fill="#A68272"/>
<path d="M160.867 200.065L160.828 200.078L149.606 159.285L149.646 159.285L160.867 200.065Z" fill="#A68272"/>
<path d="M145.992 155.628L145.955 155.64L160.819 200.09L160.857 200.078L145.992 155.628Z" fill="#A68272"/>
<path d="M160.868 200.065L160.828 200.078L144.107 154.705L144.146 154.691L160.868 200.065Z" fill="#A68272"/>
<path d="M141.559 155.01L141.523 155.026L161.589 199.739L161.625 199.723L141.559 155.01Z" fill="#A68272"/>
<path d="M160.867 200.065L160.841 200.078L138.607 154.718L138.647 154.691L160.867 200.065Z" fill="#A68272"/>
<path d="M160.868 200.065L160.841 200.078L136.783 154.718L136.809 154.691L160.868 200.065Z" fill="#A68272"/>
<path d="M160.868 200.065L160.841 200.078L136.783 154.718L136.809 154.691L160.868 200.065Z" fill="#A68272"/>
<path d="M160.867 200.051L160.841 200.078L135.864 156.542L135.904 156.529L160.867 200.051Z" fill="#A68272"/>
<path d="M160.867 200.051L160.841 200.078L135.864 156.542L135.904 156.529L160.867 200.051Z" fill="#A68272"/>
<path d="M160.867 200.051L160.841 200.078L135.864 158.38L135.904 158.366L160.867 200.051Z" fill="#A68272"/>
<path d="M160.867 200.051L160.841 200.078L134.027 161.136L134.066 161.109L160.867 200.051Z" fill="#A68272"/>
<path d="M160.867 200.051L160.841 200.078L131.284 164.798L131.31 164.771L160.867 200.051Z" fill="#A68272"/>
<path d="M160.867 200.051L160.841 200.078L131.284 166.635L131.31 166.609L160.867 200.051Z" fill="#A68272"/>
</g>
</svg>
