<svg width="300" height="100" viewBox="0 0 300 100" fill="none" xmlns="http://www.w3.org/2000/svg">
<rect width="300" height="100" fill="black"/>
<path d="M55.7952 27.9052L48.49 40.0059C48.3663 40.2103 48.2983 40.4697 48.2981 40.7379C48.2979 41.0061 48.3654 41.2658 48.4887 41.4706C48.612 41.6755 48.7831 41.8124 48.9715 41.8569C49.16 41.9014 49.3535 41.8507 49.5178 41.7137L52.3203 39.3713C52.4946 39.2248 52.7019 39.176 52.9007 39.2345C53.0996 39.293 53.2754 39.4546 53.3931 39.687L55.757 44.3656C55.8316 44.5135 55.9303 44.6341 56.045 44.7174C56.1597 44.8006 56.2869 44.8441 56.416 44.8441C56.5451 44.8441 56.6723 44.8006 56.7869 44.7174C56.9016 44.6341 57.0004 44.5135 57.075 44.3656L59.4366 39.687C59.5543 39.4546 59.7301 39.293 59.929 39.2345C60.1278 39.176 60.3351 39.2248 60.5094 39.3713L63.3119 41.7137C63.4762 41.8528 63.6704 41.9052 63.8597 41.8615C64.049 41.8178 64.2211 41.681 64.345 41.4754C64.469 41.2699 64.5368 41.0092 64.5362 40.7399C64.5356 40.4706 64.4668 40.2104 64.342 40.0059L57.0322 27.8926C56.9554 27.7676 56.8601 27.6675 56.7529 27.5993C56.6457 27.5311 56.5293 27.4964 56.4117 27.4976C56.294 27.4988 56.1779 27.5359 56.0715 27.6063C55.965 27.6767 55.8708 27.7786 55.7952 27.9052Z" fill="white"/>
<path d="M101.777 31.3247C101.447 30.7788 101.037 30.3401 100.575 30.0392C100.112 29.7383 99.6089 29.5825 99.0992 29.5825C98.5895 29.5825 98.0859 29.7383 97.6235 30.0392C97.1611 30.3401 96.751 30.7788 96.4216 31.3247L88.1425 45.0575L86.4264 47.8987C86.2247 48.2332 85.9736 48.5019 85.6904 48.6863C85.4073 48.8706 85.0989 48.966 84.7867 48.966C84.4746 48.966 84.1662 48.8706 83.8831 48.6863C83.5999 48.5019 83.3487 48.2332 83.1471 47.8987L59.8684 9.29867C59.4434 8.5944 58.9142 8.02854 58.3176 7.64042C57.721 7.25231 57.0713 7.05127 56.4137 7.05127C55.7562 7.05127 55.1065 7.25231 54.5099 7.64042C53.9133 8.02854 53.3841 8.5944 52.9591 9.29867L9.26261 81.7349C8.9975 82.1741 8.8274 82.7105 8.77238 83.2809C8.71735 83.8513 8.77969 84.432 8.95204 84.9543C9.12439 85.4766 9.39956 85.9188 9.7451 86.2288C10.0906 86.5389 10.4921 86.7037 10.9022 86.7039H42.4398C42.8501 86.7043 43.2519 86.5399 43.5977 86.2302C43.9436 85.9204 44.2191 85.4782 44.3918 84.9557C44.5644 84.4333 44.6269 83.8524 44.572 83.2817C44.517 82.711 44.3469 82.1743 44.0817 81.7349L37.9213 71.5159C37.6414 71.0514 37.268 70.7166 36.8502 70.5555C36.4323 70.3943 35.9895 70.4144 35.5799 70.613L28.2162 74.1772C26.1515 75.1779 24.4623 71.7148 25.8748 69.3723L31.2458 60.4666L34.3474 55.3491L54.7719 21.4529C54.9739 21.1184 55.2255 20.8496 55.509 20.6652C55.7925 20.4809 56.1013 20.3854 56.4137 20.3854C56.7262 20.3854 57.035 20.4809 57.3185 20.6652C57.602 20.8496 57.8536 21.1184 58.0556 21.4529L78.4981 55.3491L80.2187 58.1904L81.5974 60.4634L83.5227 63.6455L83.6779 63.9076L86.9662 69.366C88.3786 71.7084 86.6873 75.1716 84.6225 74.1708L84.1885 73.9594L79.0942 71.4969L78.8557 71.377L78.0033 70.9697L77.2633 70.613C76.8527 70.4121 76.4083 70.3906 75.9887 70.5512C75.5692 70.7118 75.1941 71.047 74.913 71.5127L68.7436 81.7349C68.4785 82.1741 68.3084 82.7105 68.2533 83.2809C68.1983 83.8513 68.2606 84.432 68.433 84.9543C68.6053 85.4766 68.8805 85.9188 69.2261 86.2288C69.5716 86.5389 69.9731 86.7037 70.3832 86.7039H101.943C102.354 86.7043 102.755 86.5399 103.101 86.2302C103.447 85.9204 103.723 85.4782 103.895 84.9557C104.068 84.4333 104.13 83.8524 104.075 83.2817C104.02 82.711 103.85 82.1743 103.585 81.7349L102.744 80.3427L91.5567 61.7893L88.2504 56.3341L88.0975 56.072L91.4375 50.5222L97.4629 40.524C97.6646 40.1885 97.916 39.9189 98.1996 39.7339C98.4831 39.5489 98.7921 39.453 99.1048 39.453C99.4175 39.453 99.7265 39.5489 100.01 39.7339C100.294 39.9189 100.545 40.1885 100.747 40.524L114.986 64.157L117.219 67.838L121.718 75.3232C121.983 75.7619 122.153 76.2977 122.208 76.8676C122.263 77.4374 122.201 78.0175 122.029 78.5396C121.857 79.0617 121.583 79.504 121.238 79.8145C120.893 80.125 120.492 80.2908 120.083 80.2922L114.044 80.3111C113.634 80.3124 113.233 80.4779 112.889 80.788C112.544 81.0981 112.269 81.5399 112.097 82.0615C111.925 82.5832 111.863 83.1629 111.918 83.7325C111.973 84.3021 112.142 84.8379 112.406 85.277L112.631 85.6432C112.833 85.9774 113.085 86.2458 113.369 86.4301C113.652 86.6143 113.961 86.7099 114.273 86.7102H130.55C130.96 86.71 131.362 86.5452 131.707 86.2352C132.053 85.9252 132.328 85.4829 132.5 84.9606C132.673 84.4383 132.735 83.8577 132.68 83.2872C132.625 82.7168 132.455 82.1804 132.19 81.7412L101.777 31.3247Z" fill="white"/>
<path d="M139.432 43.1942L151.128 23.1917H139.702V19.4192H154.659V22.6961L143.258 42.6985H154.713V46.4711H139.432V43.1942Z" fill="white"/>
<path d="M169.262 46.8528C168.228 46.8715 167.203 46.5921 166.248 46.0321C165.376 45.5173 164.587 44.759 163.93 43.8032C163.284 42.8583 162.777 41.745 162.436 40.5263C162.08 39.2654 161.9 37.9205 161.905 36.5644C161.901 35.2022 162.081 33.8513 162.436 32.5834C162.777 31.3536 163.284 30.228 163.93 29.2686C164.584 28.3031 165.373 27.5379 166.248 27.0209C167.211 26.4584 168.246 26.179 169.289 26.2001C170.32 26.18 171.343 26.4661 172.29 27.0398C173.151 27.5642 173.929 28.3216 174.582 29.2686C175.217 30.1996 175.711 31.3014 176.035 32.5077C176.37 33.7424 176.54 35.0535 176.536 36.3749C176.536 36.6906 176.536 36.9653 176.509 37.2305C176.482 37.4956 176.473 37.7198 176.455 37.8966H165.081C165.126 38.7292 165.278 39.5433 165.531 40.299C165.765 40.9906 166.086 41.6165 166.48 42.1458C167.259 43.1887 168.294 43.7689 169.37 43.7653C169.769 43.7653 170.165 43.6953 170.551 43.557C170.927 43.4235 171.288 43.2174 171.624 42.9446C171.946 42.6837 172.239 42.357 172.492 41.9754C172.74 41.6041 172.942 41.1773 173.09 40.7126L175.641 41.7417C175.121 43.2899 174.272 44.5745 173.212 45.4196C172.015 46.3989 170.648 46.8949 169.262 46.8528ZM173.578 35.0016C173.529 34.1955 173.377 33.4085 173.129 32.6782C172.899 31.9982 172.581 31.3847 172.191 30.8692C171.804 30.3673 171.353 29.973 170.861 29.7074C170.351 29.4261 169.808 29.2837 169.26 29.2876C168.185 29.279 167.147 29.8431 166.356 30.8661C165.967 31.379 165.653 31.9934 165.432 32.675C165.193 33.4087 165.046 34.1947 164.998 34.9985L173.578 35.0016Z" fill="white"/>
<path d="M197.111 46.4717H194.118V35.3088C194.118 33.4272 193.9 32.0592 193.465 31.2047C193.254 30.7907 192.971 30.458 192.644 30.2373C192.316 30.0166 191.955 29.9151 191.592 29.942C191.142 29.9454 190.697 30.0619 190.276 30.286C189.831 30.5161 189.414 30.8432 189.041 31.2552C188.655 31.6838 188.313 32.184 188.023 32.7421C187.723 33.3188 187.49 33.958 187.332 34.6363V46.4844H184.345V26.5576H187.06V30.5354C187.612 29.1771 188.432 28.0719 189.422 27.3532C190.474 26.5715 191.649 26.1722 192.84 26.1915C193.57 26.1532 194.295 26.377 194.945 26.8418C195.485 27.2571 195.935 27.8689 196.248 28.6128C196.581 29.4125 196.809 30.2892 196.922 31.2016C197.051 32.2271 197.115 33.2667 197.111 34.308V46.4717Z" fill="white"/>
<path d="M206.34 46.4714V19.4195H214.437C215.269 19.4085 216.091 19.6701 216.839 20.1835C217.553 20.673 218.194 21.3515 218.726 22.1819C219.252 23.0126 219.67 23.9668 219.96 25.001C220.256 26.0241 220.408 27.1172 220.41 28.2211C220.413 30.4623 219.845 32.6313 218.809 34.3361C218.3 35.1651 217.677 35.8397 216.976 36.3187C216.236 36.822 215.423 37.076 214.601 37.0605H209.389V46.4714H206.34ZM209.38 33.288H214.403C214.813 33.2964 215.218 33.1653 215.584 32.906C215.935 32.6479 216.242 32.2847 216.483 31.8421C216.746 31.3599 216.948 30.8187 217.082 30.2416C217.233 29.5894 217.309 28.9071 217.306 28.2211C217.314 27.5201 217.232 26.8229 217.064 26.1627C216.912 25.5811 216.683 25.0453 216.389 24.5843C216.111 24.1511 215.773 23.8011 215.397 23.5551C215.036 23.3158 214.642 23.1919 214.243 23.1921H209.385L209.38 33.288Z" fill="white"/>
<path d="M234.679 46.8528C233.645 46.8715 232.619 46.5922 231.665 46.0321C230.792 45.5165 230.003 44.7583 229.344 43.8032C228.7 42.8573 228.193 41.7442 227.853 40.5263C227.497 39.2654 227.317 37.9205 227.322 36.5644C227.318 35.2022 227.498 33.8513 227.853 32.5834C228.193 31.3543 228.7 30.2289 229.344 29.2686C229.999 28.3037 230.79 27.5386 231.665 27.0209C232.628 26.4584 233.663 26.179 234.706 26.2001C235.737 26.18 236.759 26.4661 237.706 27.0398C238.568 27.5648 239.348 28.3233 240 29.2718C240.635 30.2027 241.13 31.3045 241.453 32.5108C241.789 33.7456 241.959 35.0567 241.955 36.3781C241.955 36.6938 241.955 36.9684 241.928 37.2336C241.901 37.4988 241.892 37.723 241.874 37.8998H230.5C230.544 38.7323 230.697 39.5465 230.95 40.3022C231.183 40.9937 231.505 41.6197 231.899 42.149C232.677 43.1918 233.713 43.772 234.789 43.7685C235.187 43.7685 235.584 43.6985 235.97 43.5602C236.346 43.4266 236.707 43.2205 237.043 42.9477C237.365 42.6868 237.657 42.3602 237.911 41.9785C238.159 41.6072 238.361 41.1805 238.509 40.7157L241.06 41.7449C240.54 43.2931 239.691 44.5777 238.631 45.4227C237.432 46.4015 236.065 46.8964 234.679 46.8528ZM238.995 35.0016C238.946 34.1955 238.793 33.4085 238.545 32.6782C238.316 31.9982 237.998 31.3847 237.607 30.8692C237.221 30.3673 236.769 29.973 236.278 29.7074C235.768 29.4261 235.225 29.2837 234.677 29.2876C233.601 29.279 232.564 29.8431 231.773 30.8661C231.384 31.379 231.07 31.9934 230.849 32.675C230.61 33.4087 230.463 34.1947 230.414 34.9985L238.995 35.0016Z" fill="white"/>
<path d="M253.599 46.8537C252.945 46.8614 252.296 46.6998 251.685 46.377C251.122 46.0808 250.605 45.6337 250.164 45.0606C249.739 44.5011 249.397 43.8281 249.159 43.0811C248.913 42.3011 248.788 41.4562 248.792 40.6029C248.784 39.7149 248.934 38.838 249.229 38.0521C249.529 37.2692 249.951 36.5914 250.463 36.0696C251.036 35.4833 251.679 35.045 252.362 34.7752C253.152 34.4584 253.971 34.3042 254.793 34.3174C255.457 34.317 256.121 34.3994 256.775 34.5637C257.376 34.711 257.966 34.9349 258.538 35.2329V33.8597C258.538 32.3886 258.239 31.2363 257.638 30.4123C257.038 29.5884 256.181 29.1748 255.058 29.1748C254.289 29.1736 253.526 29.3738 252.809 29.7651C252.01 30.2085 251.25 30.7772 250.542 31.4604L249.62 28.7928C251.446 27.067 253.346 26.203 255.319 26.2009C257.293 26.1988 258.812 26.8975 259.878 28.2971C260.964 29.6967 261.508 31.7035 261.509 34.3174V41.5185C261.485 41.8819 261.552 42.2455 261.698 42.5476C261.785 42.6624 261.888 42.7517 262 42.8102C262.112 42.8688 262.231 42.8954 262.35 42.8885V46.4717C262.085 46.5426 261.818 46.5932 261.55 46.6232C261.304 46.6485 261.084 46.6612 260.875 46.6612C260.398 46.6675 259.933 46.4447 259.559 46.0298C259.252 45.6283 259.055 45.0889 259.001 44.5049L258.92 43.2421C258.304 44.3907 257.498 45.3125 256.572 45.9287C255.643 46.5443 254.627 46.8604 253.599 46.8537ZM254.413 43.7662C255.115 43.7722 255.811 43.5845 256.462 43.2137C257.053 42.8965 257.573 42.3637 257.969 41.67C258.134 41.5033 258.271 41.2871 258.369 41.0371C258.468 40.787 258.525 40.5092 258.538 40.2241V37.5944C258.015 37.3076 257.475 37.0909 256.923 36.9472C256.373 36.7958 255.814 36.7186 255.254 36.7168C254.187 36.7168 253.313 37.0408 252.634 37.689C252.32 37.9573 252.061 38.3356 251.883 38.7867C251.705 39.2378 251.613 39.7462 251.617 40.262C251.611 40.7331 251.679 41.2003 251.815 41.631C251.951 42.0617 252.152 42.4456 252.404 42.756C252.956 43.4433 253.676 43.8052 254.413 43.7662Z" fill="white"/>
<path d="M280.469 46.4715L275.937 37.2879L273.576 40.4133V46.4715H270.589V18.6587H273.576V36.2998L280.116 26.5827H283.348L277.865 34.9265L283.672 46.4715H280.469Z" fill="white"/>
<path d="M161.541 67.0613C161.543 66.1065 161.665 65.1598 161.901 64.2643C162.136 63.3491 162.489 62.5018 162.94 61.7639C163.403 61.0153 163.969 60.4063 164.605 59.9739C165.303 59.509 166.068 59.2768 166.84 59.2952C167.739 59.2622 168.625 59.5908 169.395 60.2423C170.084 60.8321 170.64 61.6835 170.999 62.6984L169.622 63.9927C169.491 63.5565 169.306 63.1559 169.076 62.8089C168.87 62.501 168.63 62.2419 168.365 62.0418C168.117 61.8549 167.851 61.7178 167.576 61.6345C167.313 61.5564 167.046 61.5162 166.777 61.5145C166.259 61.4999 165.746 61.6693 165.286 62.007C164.86 62.3256 164.489 62.7719 164.2 63.314C163.905 63.8604 163.683 64.4762 163.543 65.1324C163.397 65.7866 163.321 66.4675 163.318 67.1529C163.316 67.8922 163.404 68.6266 163.577 69.3249C163.739 69.9881 163.985 70.605 164.303 71.1464C164.61 71.6674 164.987 72.0968 165.414 72.4091C165.848 72.7272 166.331 72.8898 166.82 72.8827C167.097 72.8801 167.372 72.8324 167.641 72.7406C167.927 72.6463 168.201 72.4909 168.453 72.2797C168.716 72.0597 168.956 71.7899 169.166 71.4779C169.393 71.1363 169.578 70.7436 169.712 70.3161L171.165 71.4779C170.991 72.0557 170.739 72.581 170.423 73.0248C170.106 73.4706 169.746 73.851 169.353 74.1549C168.556 74.7662 167.665 75.0916 166.757 75.102C166.023 75.1146 165.299 74.8727 164.647 74.398C164.02 73.94 163.461 73.3186 162.999 72.567C162.533 71.8085 162.169 70.9393 161.921 70.0004C161.669 69.0612 161.54 68.0652 161.541 67.0613Z" fill="white"/>
<path d="M177.767 74.9597L182.238 59.3833H183.675L188.131 74.9597H186.271L185.081 70.7263H180.807L179.651 74.9597H177.767ZM182.955 62.1236L181.111 68.9047H184.739L182.955 62.1236Z" fill="white"/>
<path d="M195.726 74.96V59.3835H200.384C200.863 59.3765 201.337 59.5268 201.767 59.8224C202.18 60.1025 202.549 60.494 202.854 60.9747C203.157 61.4523 203.398 62.0017 203.564 62.5974C203.735 63.186 203.822 63.8152 203.823 64.4505C203.823 65.7413 203.496 66.9902 202.901 67.9737C202.608 68.4496 202.249 68.8372 201.846 69.1133C201.42 69.4019 200.952 69.5478 200.479 69.5395H197.476V74.96H195.726ZM197.476 67.3833H200.368C200.602 67.3869 200.834 67.3123 201.043 67.1655C201.249 67.0184 201.428 66.8079 201.567 66.5499C201.719 66.273 201.836 65.961 201.911 65.628C201.997 65.2528 202.04 64.8605 202.037 64.4663C202.042 64.0628 201.993 63.6617 201.895 63.2824C201.807 62.9464 201.674 62.6369 201.504 62.3701C201.345 62.1217 201.151 61.9209 200.935 61.7797C200.724 61.641 200.493 61.5698 200.26 61.5714H197.462L197.476 67.3833Z" fill="white"/>
<path d="M211.686 74.9596V59.4053H213.436V74.9596H211.686Z" fill="white"/>
<path d="M230.329 61.5553H226.638V74.9597H224.888V61.5553H221.184V59.3833H230.329V61.5553Z" fill="white"/>
<path d="M235.898 74.9597L240.367 59.3833H241.806L246.26 74.9597H244.4L243.212 70.7263H238.939L237.783 74.9597H235.898ZM241.087 62.1236L239.242 68.9047H242.868L241.087 62.1236Z" fill="white"/>
<path d="M253.857 74.9597V59.3833H255.607V72.7878H261.563V74.9597H253.857Z" fill="white"/>
</svg>
