<svg width="128" height="113" viewBox="0 0 128 113" fill="none" xmlns="http://www.w3.org/2000/svg">
<g filter="url(#filter0_d_29_2857)">
<rect x="23" y="20" width="73" height="73" rx="14" fill="#D9D9D9"/>
<rect x="23" y="20" width="73" height="73" rx="14" fill="#A68272"/>
</g>
<path d="M47.59 40.5423C47.59 40.1803 47.8842 39.8861 48.2463 39.8861H65.2267C65.5888 39.8861 65.883 40.1803 65.883 40.5423C65.883 40.9044 65.5888 41.1986 65.2267 41.1986H48.2463C47.8842 41.1986 47.59 40.9044 47.59 40.5423ZM48.2463 48.028H71.2139C71.5759 48.028 71.8702 47.7337 71.8702 47.3717C71.8702 47.0097 71.5759 46.7155 71.2139 46.7155H48.2463C47.8842 46.7155 47.59 47.0097 47.59 47.3717C47.59 47.7337 47.8842 48.028 48.2463 48.028ZM84.4373 80.3887C84.2044 81.4245 83.5438 82.3225 82.625 82.8519C82.042 83.1887 81.3814 83.3616 80.7175 83.3616C80.3369 83.3616 79.9552 83.3047 79.5855 83.1898C78.6634 82.9022 77.9372 82.2842 77.5402 81.4497L74.7992 75.678H42.1311C41.7691 75.678 41.4749 75.3837 41.4749 75.0217V31.2969C41.4749 30.9348 41.7691 30.6406 42.1311 30.6406H70.1913V30.6417C70.3619 30.6417 70.5303 30.7073 70.655 30.832L77.3925 37.5695C77.5183 37.6953 77.5828 37.8627 77.5828 38.0333H77.5839V51.6144C80.1159 53.7909 81.7216 57.0153 81.7216 60.6083C81.7216 63.9781 80.3095 67.0231 78.0455 69.1844L83.9517 77.7463C84.4778 78.5086 84.6495 79.4459 84.4373 80.3887ZM69.8642 50.0623C64.0488 50.0623 59.3183 54.7939 59.3183 60.6083C59.3183 66.4227 64.0499 71.1542 69.8642 71.1542C75.6786 71.1542 80.4102 66.4227 80.4102 60.6083C80.4102 54.7939 75.6797 50.0623 69.8642 50.0623ZM70.8475 37.3781H75.3439L70.8475 32.8817V37.3781ZM74.1769 74.3644L73.0667 72.0281C72.0474 72.3147 70.9733 72.4678 69.8642 72.4678C66.3609 72.4678 63.2077 70.9398 61.0344 68.5161H48.2463C47.8842 68.5161 47.59 68.2219 47.59 67.8598C47.59 67.4978 47.8842 67.2036 48.2463 67.2036H60.0117C58.9333 65.598 58.2377 63.7145 58.0539 61.6867H48.2463C47.8842 61.6867 47.59 61.3925 47.59 61.0305C47.59 60.6684 47.8842 60.3742 48.2463 60.3742H58.008C58.0474 58.3759 58.5833 56.498 59.4966 54.8573H48.2463C47.8842 54.8573 47.59 54.5631 47.59 54.2011C47.59 53.8391 47.8842 53.5448 48.2463 53.5448H60.3442C62.5077 50.6377 65.9694 48.7509 69.8631 48.7509C72.2223 48.7509 74.4219 49.4433 76.2714 50.6355V38.6906H70.1902C69.8281 38.6906 69.5339 38.3964 69.5339 38.0344V31.9531H42.7874V74.3644H74.1769ZM82.8722 78.4933L77.0425 70.0419C76.2124 70.6752 75.2969 71.2012 74.3158 71.6005L78.7258 80.8875C78.9631 81.3873 79.4072 81.7603 79.9748 81.9375C80.63 82.1409 81.3749 82.0589 81.9677 81.7166C82.5605 81.3742 83.0045 80.7705 83.1555 80.1011C83.2878 79.5192 83.1861 78.9483 82.8722 78.4933ZM69.8642 53.5973C67.5597 53.5973 65.6861 55.472 65.6861 57.7755C65.6861 58.1375 65.9803 58.4317 66.3424 58.4317C66.7044 58.4317 66.9986 58.1375 66.9986 57.7755C66.9986 56.195 68.2838 54.9098 69.8642 54.9098C71.4447 54.9098 72.7298 56.195 72.7298 57.7755C72.7298 59.0092 71.9445 60.1019 70.7753 60.4934C69.8227 60.8128 69.208 61.667 69.208 62.6711V64.2581C69.208 64.6202 69.5022 64.9144 69.8642 64.9144C70.2263 64.9144 70.5205 64.6202 70.5205 64.2581V62.6711C70.5205 62.2336 70.7775 61.8759 71.192 61.737C72.8972 61.1661 74.0424 59.5736 74.0424 57.7744C74.0424 55.472 72.1677 53.5973 69.8642 53.5973ZM69.8642 66.2969C69.5022 66.2969 69.208 66.5911 69.208 66.9531V66.9652C69.208 67.3272 69.5022 67.6214 69.8642 67.6214C70.2263 67.6214 70.5205 67.3272 70.5205 66.9652V66.9531C70.5205 66.59 70.2263 66.2969 69.8642 66.2969Z" fill="white"/>
<defs>
<filter id="filter0_d_29_2857" x="-8.4" y="-7.4" width="135.8" height="135.8" filterUnits="userSpaceOnUse" color-interpolation-filters="sRGB">
<feFlood flood-opacity="0" result="BackgroundImageFix"/>
<feColorMatrix in="SourceAlpha" type="matrix" values="0 0 0 0 0 0 0 0 0 0 0 0 0 0 0 0 0 0 127 0" result="hardAlpha"/>
<feOffset dy="4"/>
<feGaussianBlur stdDeviation="15.7"/>
<feComposite in2="hardAlpha" operator="out"/>
<feColorMatrix type="matrix" values="0 0 0 0 0.854902 0 0 0 0 0.686275 0 0 0 0 0.584314 0 0 0 1 0"/>
<feBlend mode="normal" in2="BackgroundImageFix" result="effect1_dropShadow_29_2857"/>
<feBlend mode="normal" in="SourceGraphic" in2="effect1_dropShadow_29_2857" result="shape"/>
</filter>
</defs>
</svg>
