<svg width="21" height="21" viewBox="0 0 21 21" fill="none" xmlns="http://www.w3.org/2000/svg">
<path d="M3.29318 5.62979C3.30438 5.51543 3.28869 5.40003 3.24734 5.29281C3.206 5.18559 3.14015 5.08953 3.05505 5.01229L1.29318 2.88729V2.57104H6.76943L11.0038 11.856L14.7263 2.57104H19.9488V2.88729L18.4413 4.33292C18.3776 4.3813 18.3282 4.44615 18.2986 4.52049C18.269 4.59483 18.2602 4.67583 18.2732 4.75479V15.3798C18.2602 15.4588 18.269 15.5398 18.2986 15.6141C18.3282 15.6884 18.3776 15.7533 18.4413 15.8017L19.9138 17.2473V17.5635H12.5038V17.2473L14.0313 15.7667C14.1801 15.6179 14.1801 15.571 14.1801 15.3448V6.75854L9.9338 17.536H9.35943L4.42193 6.75854V13.981C4.3788 14.2854 4.48068 14.5904 4.69568 14.8092L6.68005 17.2154V17.5317H1.05505V17.2192L3.03943 14.8092C3.25005 14.5904 3.34818 14.2817 3.29318 13.981V5.62979Z" fill="white"/>
</svg>
