<svg width="48" height="50" viewBox="0 0 48 50" fill="none" xmlns="http://www.w3.org/2000/svg">
<path d="M21.9997 0.235683C20.3404 0.59124 18.8589 1.42088 18.3453 2.27027C17.9898 2.86287 17.9108 3.37646 17.7725 6.55674C17.5947 10.6654 17.0219 15.5643 16.291 19.3569C15.5996 22.952 13.8021 29.9644 13.5453 29.9644C13.5255 29.9644 12.4786 29.4903 11.2539 28.8977C8.52795 27.594 6.90818 27.1397 4.9526 27.1199C3.82667 27.1199 3.29333 27.2187 2.68097 27.5348C-0.459802 29.194 -0.874622 32.6706 1.6143 36.3842C4.97236 41.4016 13.4268 45.9251 23.7182 48.1967C30.8097 49.777 37.6443 49.8362 41.9703 48.335C44.9333 47.3276 47.1457 45.4905 47.7185 43.5547C48.0938 42.2905 48.0938 41.9349 47.7185 40.7102C46.9284 38.0633 43.8864 36.8781 37.8024 36.8781H34.9381L35.0764 36.0287C35.6492 32.5718 37.1307 28.2656 39.0271 24.5323C40.7258 21.1544 42.2073 18.7643 45.3679 14.3198C47.3432 11.5543 47.758 10.863 47.6 10.5667C47.3432 10.0728 47.0667 10.1123 45.8222 10.8037C44.4987 11.5346 44.3802 11.5346 44.7555 10.8037C46.2173 7.97898 42.1876 4.08758 35.3134 1.73693C34.0295 1.28261 32.0739 0.749268 30.9677 0.51223C28.3405 -0.0211105 23.7578 -0.179138 21.9997 0.235683ZM34.5431 2.52707C35.6295 2.90238 37.032 3.69251 36.6172 3.69251C36.4986 3.69251 35.9258 3.47522 35.3332 3.19868C34.7603 2.94189 33.8122 2.60608 33.2591 2.48756C32.6862 2.34929 32.2122 2.1715 32.2122 2.07274C32.2122 1.85545 33.1011 2.01348 34.5431 2.52707ZM33.1998 2.80361C34.1282 3.09991 35.4122 3.6135 36.0641 3.92955C37.3085 4.56166 38.6122 5.45055 38.474 5.58883C38.4345 5.62833 37.6443 5.31228 36.7357 4.89746C33.8517 3.55424 30.1776 2.50731 28.2813 2.50731C27.8467 2.50731 27.4319 2.40855 27.3529 2.29003C27.0763 1.8357 31.343 2.21101 33.1998 2.80361ZM20.7553 8.05799C23.4022 10.1913 27.3331 11.7914 33.1998 13.1148C35.1554 13.5692 35.9258 13.6482 38.7308 13.6482C41.5752 13.6482 42.1481 13.5889 43.274 13.2136C43.9851 12.9766 44.6172 12.779 44.6963 12.779C44.7753 12.779 43.8271 14.2605 42.6024 16.0778C38.4147 22.2804 36.4986 26.1125 34.9184 31.3471C34.2665 33.5398 33.1998 38.7349 33.1998 39.8016C33.1998 40.8682 33.0418 40.9275 30.1973 40.9077C24.8244 40.8485 19.9454 39.5053 15.0268 36.6805C14.0589 36.1274 13.2095 35.5941 13.17 35.5151C13.0712 35.3768 14.0984 32.4138 14.2762 32.2163C14.3157 32.1768 15.8169 32.8879 17.5947 33.7966C22.138 36.0682 27.6492 37.8065 29.7825 37.6287C30.6122 37.5694 30.4936 37.8262 31.1257 34.4089C31.6591 31.4064 33.1208 27.436 35.432 22.7742C37.7629 18.0334 37.7826 17.9149 36.2814 17.9149C32.2517 17.9149 26.6812 16.3346 21.8022 13.826C18.5034 12.1272 18.6219 12.2654 18.7997 10.6654C18.8984 9.93456 18.9577 8.78886 18.9577 8.11725C18.9775 6.73452 19.0762 6.55674 19.5305 7.01107C19.7281 7.18885 20.2614 7.66293 20.7553 8.05799ZM31.185 8.51232C31.5208 8.59133 31.8171 8.74936 31.8171 8.84813C31.8171 9.16418 30.6319 8.80862 28.6171 7.89997C26.8985 7.12959 27.2343 6.99131 29.0121 7.74194C29.8418 8.0975 30.8294 8.45306 31.185 8.51232ZM27.0961 7.93947C29.6442 9.22344 33.7924 10.4086 35.7875 10.4086C36.2418 10.4086 36.5579 10.5074 36.5579 10.6259C36.5579 10.9815 32.7455 10.7049 31.1257 10.2309C29.3479 9.69752 26.4245 8.29503 25.8714 7.72219C25.2788 7.09008 25.4565 7.12959 27.0961 7.93947ZM21.5849 15.1297C24.6862 16.6902 28.3603 18.0334 30.8887 18.5272C32.0739 18.7445 32.2319 18.8433 32.3307 19.2779C32.4887 20.068 33.1801 21.3915 33.6937 21.8656L34.148 22.3001L33.3579 23.9989C32.1332 26.6656 31.422 28.5027 30.7307 30.7545L30.0788 32.8089L29.1109 33.0262C27.8269 33.3225 26.9973 33.9348 26.543 34.9027C26.3454 35.3373 26.0689 35.6929 25.9109 35.6929C24.8639 35.7126 19.1355 33.3422 16.2515 31.6829C14.5725 30.7348 14.612 31.0904 15.6787 27.4755C16.5873 24.4137 17.6737 19.2976 18.1281 16.0778C18.3256 14.6951 18.4836 13.5692 18.4836 13.5692C18.4836 13.5692 19.8861 14.2605 21.5849 15.1297ZM7.26374 35.9102C12.0045 39.7423 16.4885 42.0337 22.3355 43.5744C26.4837 44.6609 28.0047 44.8584 32.4097 44.8782C36.1826 44.8782 36.5974 44.8387 38.5925 44.3251C41.0221 43.7127 41.4962 43.6732 41.4962 44.0683C41.4962 44.4831 39.6987 45.293 37.4468 45.8856C30.5331 47.7226 17.9503 44.9769 10.3848 39.9991C8.58721 38.8336 4.9526 35.3768 4.9526 34.8435C4.9526 34.2311 5.48594 34.4879 7.26374 35.9102Z" fill="#5E65D4"/>
<path d="M22.0787 20.6805C20.0836 21.2731 18.8392 23.6237 19.3725 25.7966C19.8268 27.7324 21.6441 29.1744 23.6195 29.1744C27.5109 29.1744 29.3084 24.4336 26.4639 21.7274C25.2787 20.6015 23.6392 20.2064 22.0787 20.6805ZM24.6664 21.5694C25.0219 21.6682 25.101 21.8064 25.0219 22.1225C24.9627 22.3595 25.0812 22.7151 25.3182 23.0114C25.5158 23.2879 25.6936 23.7225 25.6936 23.9793C25.6936 24.3941 25.6343 24.4336 25.259 24.3349C25.0022 24.2558 24.6466 23.9793 24.4491 23.7225C23.9948 23.1299 23.1256 23.0707 23.1256 23.6435C23.1256 23.8805 23.3627 24.1571 23.7775 24.3546C25.6343 25.3028 25.8516 26.6065 24.2911 27.4164C23.8565 27.6337 23.5207 27.93 23.5207 28.1077C23.5207 28.325 23.4022 28.3843 23.1256 28.3053C22.9083 28.246 22.5528 28.1275 22.3355 28.0682C22.0392 27.9892 21.9602 27.851 22.0392 27.5744C22.1182 27.3374 21.9997 27.0016 21.7626 26.6855C21.3478 26.1719 21.2096 25.3225 21.5059 25.1645C21.7626 25.0065 22.533 25.4015 22.533 25.7176C22.533 26.0929 23.3824 26.5077 23.7972 26.3497C24.3306 26.1324 24.1528 25.8559 23.0269 25.1447C21.7824 24.3349 21.5059 23.7225 22.0392 22.9324C22.217 22.6361 22.6318 22.32 22.9478 22.2015C23.3034 22.0632 23.5207 21.8262 23.5207 21.6089C23.5207 21.3521 23.6195 21.2731 23.8762 21.3521C24.054 21.3916 24.4293 21.4904 24.6664 21.5694Z" fill="5692E8"/>
</svg>
