<svg width="480" height="100" viewBox="0 0 480 100" fill="none" xmlns="http://www.w3.org/2000/svg">
<path d="M82.1438 25.9264L69.3819 41.0052C68.3609 42.2225 69.8138 43.9502 71.1882 43.1256L76.0966 40.2198C76.7248 39.8271 77.5102 40.0235 77.9421 40.6125L82.0652 46.4241C82.6542 47.2094 83.8323 47.2094 84.382 46.4241L88.5051 40.6125C88.937 40.0235 89.7224 39.8271 90.3899 40.2198L95.2591 43.1256C96.6334 43.9502 98.0863 42.2225 97.0654 41.0052L84.3035 25.9264C83.7537 25.2589 82.6935 25.2589 82.1438 25.9264Z" fill="white"/>
<path d="M162.406 30.1671C159.972 27.3006 155.535 27.3006 153.061 30.1671L138.61 47.2877L135.626 50.7825C134.134 52.5495 131.385 52.5495 129.893 50.7825L89.2514 2.7978C86.11 -0.9326 80.3377 -0.9326 77.1963 2.7978L0.899791 92.8771C-1.18138 95.3117 0.585648 99.0814 3.7663 99.0814H58.8191C62.0391 99.0814 63.7668 95.3117 61.6857 92.8771L50.9264 80.1938C49.9447 78.9765 48.2955 78.5445 46.8426 79.055L34.0022 83.4922C30.3896 84.7095 27.4445 80.4294 29.9184 77.5236L39.264 66.4502L44.6829 60.0496L80.3769 17.9157C81.8691 16.1487 84.5785 16.1487 86.0707 17.9157L121.765 60.0496L124.788 63.6229L127.184 66.4502L130.561 70.377L130.836 70.7303L136.569 77.4843C139.042 80.4294 136.097 84.7095 132.485 83.4529L131.699 83.2174L122.825 80.1545L122.393 79.9975L120.901 79.487L119.605 79.055C118.152 78.5445 116.542 78.9765 115.521 80.1545L104.762 92.8771C102.681 95.3117 104.448 99.0814 107.629 99.0814H162.721C165.901 99.0814 167.629 95.3117 165.587 92.8771L164.095 91.1494L144.579 68.0601L138.807 61.2669L138.532 60.9528L144.343 54.0417L154.867 41.6332C156.359 39.8269 159.108 39.8269 160.6 41.6332L185.456 71.0052L189.383 75.5995L197.237 84.9059C199.318 87.3405 197.59 91.0709 194.37 91.0709L183.846 91.1101C180.666 91.1101 178.938 94.8405 180.98 97.2751L181.373 97.7463C182.079 98.5709 183.14 99.0814 184.239 99.0814H212.669C215.849 99.0814 217.577 95.3117 215.535 92.8771L162.406 30.1671Z" fill="white"/>
<path d="M228.179 44.9316L248.598 20.0754H228.65V15.3633H254.763V19.447L234.854 44.3426H254.842V49.0154H228.179V44.9316Z" fill="white"/>
<path fill-rule="evenodd" clip-rule="evenodd" d="M280.248 49.4865C278.311 49.4865 276.557 49.1462 274.986 48.4656C273.416 47.785 272.067 46.8687 270.942 45.7169C269.816 44.5389 268.939 43.1775 268.311 41.633C267.709 40.0885 267.408 38.4393 267.408 36.6854C267.408 34.9576 267.709 33.3083 268.311 31.7377C268.939 30.1931 269.816 28.8188 270.942 27.6146C272.067 26.4366 273.416 25.5073 274.986 24.8267C276.557 24.146 278.324 23.8057 280.287 23.8057C282.225 23.8057 283.965 24.1591 285.51 24.8659C287.081 25.5465 288.416 26.4627 289.515 27.6146C290.641 28.7664 291.492 30.1146 292.068 31.6591C292.644 33.1775 292.932 34.7743 292.932 36.4497C292.932 36.8424 292.918 37.2089 292.892 37.5492C292.866 37.8634 292.84 38.1383 292.814 38.3739H272.944C273.049 39.4734 273.311 40.4681 273.73 41.3582C274.149 42.2482 274.698 43.0074 275.379 43.6357C276.06 44.2901 276.832 44.7875 277.696 45.1279C278.586 45.4944 279.502 45.6776 280.444 45.6776C281.125 45.6776 281.806 45.586 282.486 45.4027C283.167 45.2195 283.795 44.9708 284.371 44.6567C284.947 44.3164 285.458 43.9106 285.903 43.4393C286.321 42.9681 286.662 42.4446 286.924 41.8687L291.4 43.1645C290.536 45.0232 289.123 46.5414 287.159 47.7195C285.17 48.8975 282.866 49.4865 280.248 49.4865ZM287.787 34.7612C287.683 33.7141 287.421 32.7455 287.002 31.8555C286.583 30.9916 286.034 30.2455 285.353 29.6173C284.698 28.989 283.926 28.5047 283.036 28.1644C282.146 27.8241 281.217 27.6539 280.248 27.6539C279.253 27.6539 278.324 27.8241 277.46 28.1644C276.596 28.5047 275.837 28.989 275.183 29.6173C274.502 30.2455 273.965 30.9916 273.573 31.8555C273.154 32.7455 272.892 33.7141 272.787 34.7612H287.787Z" fill="white"/>
<path d="M328.86 49.0153H323.638V35.1539C323.638 32.7979 323.258 31.0963 322.499 30.0491C321.74 28.9758 320.653 28.4392 319.24 28.4392C318.48 28.4392 317.721 28.5832 316.962 28.8711C316.177 29.1591 315.457 29.5649 314.802 30.0884C314.122 30.612 313.52 31.2272 312.996 31.934C312.499 32.6408 312.106 33.4262 311.818 34.29V49.0153H306.595V24.2376H311.347V29.2246C312.289 27.5492 313.664 26.2271 315.47 25.2585C317.25 24.2899 319.24 23.8057 321.439 23.8057C322.905 23.8057 324.122 24.0806 325.09 24.6303C326.059 25.1539 326.818 25.8868 327.368 26.8292C327.918 27.7455 328.31 28.8188 328.546 30.0491C328.755 31.2533 328.86 32.5361 328.86 33.8974V49.0153Z" fill="white"/>
<path fill-rule="evenodd" clip-rule="evenodd" d="M344.961 49.0154V15.3633H359.097C360.616 15.3633 362.016 15.6774 363.299 16.3057C364.582 16.9601 365.681 17.7979 366.597 18.8188C367.513 19.8398 368.233 21.0047 368.757 22.3136C369.281 23.6225 369.542 24.9576 369.542 26.3188C369.542 27.7325 369.294 29.1068 368.796 30.4419C368.299 31.7508 367.605 32.9158 366.715 33.9368C365.851 34.9577 364.791 35.7824 363.534 36.4106C362.278 37.0127 360.89 37.3137 359.372 37.3137H350.301V49.0154H344.961ZM350.262 32.6409H359.019C359.778 32.6409 360.472 32.4839 361.1 32.1697C361.702 31.8556 362.225 31.4105 362.671 30.8346C363.116 30.2587 363.469 29.5912 363.731 28.832C363.966 28.0728 364.084 27.2351 364.084 26.3188C364.084 25.3764 363.94 24.5256 363.652 23.7665C363.364 23.0073 362.972 22.3528 362.474 21.8031C361.977 21.2533 361.401 20.8215 360.746 20.5073C360.092 20.2194 359.424 20.0754 358.744 20.0754H350.262V32.6409Z" fill="white"/>
<path fill-rule="evenodd" clip-rule="evenodd" d="M394.436 49.4865C392.525 49.4865 390.771 49.1462 389.174 48.4656C387.604 47.785 386.255 46.8687 385.13 45.7169C384.004 44.5389 383.14 43.1775 382.538 41.633C381.91 40.0885 381.596 38.4393 381.596 36.6854C381.596 34.9576 381.91 33.3083 382.538 31.7377C383.14 30.1931 384.004 28.8188 385.13 27.6146C386.255 26.4366 387.604 25.5073 389.174 24.8267C390.771 24.146 392.551 23.8057 394.515 23.8057C396.426 23.8057 398.167 24.1591 399.737 24.8659C401.308 25.5465 402.643 26.4627 403.743 27.6146C404.842 28.7664 405.693 30.1146 406.295 31.6591C406.871 33.1775 407.159 34.7743 407.159 36.4497C407.159 36.8424 407.146 37.2089 407.119 37.5492C407.067 37.8634 407.028 38.1383 407.002 38.3739H387.172C387.25 39.4734 387.499 40.4681 387.918 41.3582C388.363 42.2482 388.926 43.0074 389.606 43.6357C390.287 44.2901 391.059 44.7875 391.923 45.1279C392.787 45.4944 393.69 45.6776 394.632 45.6776C395.339 45.6776 396.033 45.586 396.714 45.4027C397.394 45.2195 398.009 44.9708 398.559 44.6567C399.135 44.3164 399.646 43.9106 400.091 43.4393C400.536 42.9681 400.889 42.4446 401.151 41.8687L405.588 43.1645C404.724 45.0232 403.311 46.5414 401.347 47.7195C399.384 48.8975 397.08 49.4865 394.436 49.4865ZM401.975 34.7612C401.897 33.7141 401.635 32.7455 401.19 31.8555C400.771 30.9916 400.235 30.2455 399.58 29.6173C398.9 28.989 398.127 28.5047 397.263 28.1644C396.373 27.8241 395.431 27.6539 394.436 27.6539C393.468 27.6539 392.551 27.8241 391.687 28.1644C390.824 28.5047 390.051 28.989 389.371 29.6173C388.716 30.2455 388.18 30.9916 387.761 31.8555C387.368 32.7455 387.119 33.7141 387.015 34.7612H401.975Z" fill="white"/>
<path fill-rule="evenodd" clip-rule="evenodd" d="M427.499 49.4865C426.295 49.4865 425.169 49.2901 424.122 48.8975C423.101 48.5048 422.224 47.9682 421.491 47.2876C420.758 46.5808 420.169 45.7561 419.724 44.8137C419.305 43.8713 419.096 42.8373 419.096 41.7116C419.096 40.5598 419.345 39.5126 419.842 38.5702C420.366 37.6016 421.086 36.777 422.002 36.0964C422.944 35.3896 424.057 34.8529 425.339 34.4864C426.622 34.0937 428.036 33.8974 429.58 33.8974C430.732 33.8974 431.884 34.0021 433.036 34.2115C434.162 34.4209 435.182 34.6959 436.099 35.0362V33.3477C436.099 31.5152 435.575 30.0884 434.528 29.0675C433.507 28.0203 432.015 27.4968 430.052 27.4968C428.716 27.4968 427.408 27.7455 426.125 28.2429C424.842 28.7403 423.52 29.4471 422.159 30.3633L420.549 27.0256C423.743 24.879 427.067 23.8057 430.523 23.8057C433.926 23.8057 436.583 24.6826 438.494 26.4366C440.379 28.1643 441.321 30.6513 441.321 33.8974V42.8503C441.321 43.4524 441.426 43.8844 441.635 44.1462C441.871 44.408 442.251 44.5519 442.774 44.5781V49.0153C442.277 49.12 441.819 49.1855 441.4 49.2116C440.955 49.2378 440.562 49.2509 440.222 49.2509C439.227 49.1986 438.468 48.9368 437.944 48.4656C437.421 47.9944 437.093 47.353 436.963 46.5414L436.806 45.01C435.706 46.4498 434.345 47.5624 432.722 48.3478C431.099 49.1069 429.358 49.4865 427.499 49.4865ZM428.913 45.6776C430.169 45.6776 431.36 45.4419 432.486 44.9707C433.612 44.5257 434.489 43.8844 435.117 43.0467C435.772 42.4708 436.099 41.8686 436.099 41.2403V37.9812C435.209 37.6409 434.266 37.3791 433.271 37.1959C432.277 36.9864 431.308 36.8817 430.366 36.8817C428.507 36.8817 426.989 37.2874 425.811 38.0989C424.606 38.9105 424.004 39.9707 424.004 41.2796C424.004 42.5362 424.462 43.5833 425.379 44.421C426.295 45.2587 427.473 45.6776 428.913 45.6776Z" fill="white"/>
<path d="M474.385 49.0159L466.492 37.5891L462.369 41.4766V49.0159H457.146V14.4214H462.369V36.3718L473.795 24.2774H479.411L469.829 34.6833L480 49.0159H474.385Z" fill="white"/>
<path d="M266.777 74.6177C266.777 73.4659 266.987 72.3141 267.406 71.1623C267.824 70.0104 268.426 68.9763 269.212 68.0601C269.997 67.1439 270.966 66.3978 272.118 65.8219C273.269 65.2459 274.565 64.958 276.005 64.958C277.733 64.958 279.225 65.3507 280.482 66.136C281.712 66.9214 282.641 67.9423 283.27 69.1989L280.874 70.8088C280.612 70.2329 280.298 69.7486 279.932 69.3559C279.539 68.9371 279.12 68.6099 278.675 68.3742C278.23 68.1386 277.772 67.9685 277.301 67.8638C276.83 67.7852 276.358 67.7459 275.887 67.7459C274.919 67.7459 274.055 67.9423 273.296 68.3349C272.536 68.7538 271.908 69.3036 271.411 69.9843C270.887 70.6387 270.508 71.3848 270.272 72.2225C270.01 73.0602 269.879 73.8978 269.879 74.7355C269.879 75.678 270.023 76.5812 270.311 77.4451C270.625 78.3089 271.057 79.068 271.607 79.7225C272.131 80.3769 272.772 80.9005 273.531 81.2932C274.264 81.6859 275.089 81.8822 276.005 81.8822C276.45 81.8822 276.921 81.8167 277.419 81.6859C277.916 81.5811 278.387 81.3848 278.832 81.0968C279.277 80.8351 279.696 80.5078 280.089 80.1152C280.455 79.7225 280.77 79.2382 281.031 78.6623L283.584 80.1152C283.27 80.8481 282.838 81.4896 282.288 82.0393C281.738 82.5891 281.11 83.0602 280.403 83.4529C279.722 83.8456 278.989 84.1336 278.204 84.3168C277.419 84.5263 276.646 84.6309 275.887 84.6309C274.526 84.6309 273.296 84.343 272.196 83.767C271.097 83.1649 270.141 82.4058 269.33 81.4895C268.518 80.5471 267.89 79.4738 267.445 78.2696C267 77.0916 266.777 75.8743 266.777 74.6177Z" fill="white"/>
<path fill-rule="evenodd" clip-rule="evenodd" d="M295.089 84.4737L302.903 65.0757H305.416L313.191 84.4737H309.932L307.851 79.1726H300.39L298.348 84.4737H295.089ZM304.16 68.4919L300.94 76.9344H307.262L304.16 68.4919Z" fill="white"/>
<path fill-rule="evenodd" clip-rule="evenodd" d="M326.465 84.4737V65.0757H334.593C335.457 65.0757 336.256 65.2589 336.989 65.6254C337.722 65.9919 338.35 66.4762 338.873 67.0783C339.423 67.6542 339.842 68.3218 340.13 69.0809C340.418 69.8401 340.562 70.6123 340.562 71.3977C340.562 72.2092 340.431 72.9945 340.169 73.7537C339.881 74.5129 339.475 75.1805 338.952 75.7564C338.454 76.3585 337.852 76.8296 337.146 77.17C336.413 77.5365 335.614 77.7198 334.75 77.7198H329.488V84.4737H326.465ZM329.528 75.0103H334.593C335.012 75.0103 335.405 74.9186 335.771 74.7354C336.138 74.5522 336.439 74.3035 336.674 73.9894C336.936 73.649 337.146 73.2694 337.303 72.8505C337.434 72.4055 337.499 71.9212 337.499 71.3977C337.499 70.8479 337.42 70.3505 337.263 69.9055C337.106 69.4866 336.871 69.1071 336.557 68.7668C336.269 68.4526 335.941 68.217 335.575 68.0599C335.208 67.8767 334.829 67.7851 334.436 67.7851H329.528V75.0103Z" fill="white"/>
<path d="M354.303 84.4736V65.1147H357.366V84.4736H354.303Z" fill="white"/>
<path d="M386.857 67.7851H380.417V84.4737H377.354V67.7851H370.914V65.0757H386.857V67.7851Z" fill="white"/>
<path fill-rule="evenodd" clip-rule="evenodd" d="M396.595 84.4737L404.37 65.0757H406.883L414.658 84.4737H411.438L409.357 79.1726H401.857L399.854 84.4737H396.595ZM405.666 68.4919L402.446 76.9344H408.768L405.666 68.4919Z" fill="white"/>
<path d="M427.93 84.4737V65.0757H430.992V81.7643H441.398V84.4737H427.93Z" fill="white"/>
</svg>
